<?xml version="1.0" encoding="UTF-8" standalone="no"?>
<!DOCTYPE svg PUBLIC "-//W3C//DTD SVG 1.1//EN"
 "http://www.w3.org/Graphics/SVG/1.1/DTD/svg11.dtd">
<!-- Generated by graphviz version 2.43.0 (0)
 -->
<!-- Title: ParticleLocationStatusToString Pages: 1 -->
<!--zoomable 275 -->

<svg id="main" version="1.1" xmlns="http://www.w3.org/2000/svg" xmlns:xlink="http://www.w3.org/1999/xlink" xml:space="preserve" onload="init(evt)">
<style type="text/css"><![CDATA[
.node, .edge {opacity: 0.7;}
.node.selected, .edge.selected {opacity: 1;}
.edge:hover path { stroke: red; }
.edge:hover polygon { stroke: red; fill: red; }
]]></style>

<defs>
  <circle id="rim" cx="0" cy="0" r="7"/>
  <circle id="rim2" cx="0" cy="0" r="3.5"/>
  <g id="zoomPlus">
    <use xlink:href="#rim" fill="#404040"><set attributeName="fill" to="#808080" begin="zoomplus.mouseover" end="zoomplus.mouseout"/></use>
    <path d="M-4,0h8M0,-4v8" fill="none" stroke="white" stroke-width="1.5" pointer-events="none"/>
  </g>
  <g id="zoomMin">
    <use xlink:href="#rim" fill="#404040"><set attributeName="fill" to="#808080" begin="zoomminus.mouseover" end="zoomminus.mouseout"/></use>
    <path d="M-4,0h8" fill="none" stroke="white" stroke-width="1.5" pointer-events="none"/>
  </g>
  <g id="arrowUp" transform="translate(30 24)">
    <use xlink:href="#rim"/>
    <path pointer-events="none" fill="none" stroke="white" stroke-width="1.5" d="M0,-3.0v7 M-2.5,-0.5L0,-3.0L2.5,-0.5"/>
  </g>
  <g id="arrowRight" transform="rotate(90) translate(36 -43)">
    <use xlink:href="#rim"/>
    <path pointer-events="none" fill="none" stroke="white" stroke-width="1.5" d="M0,-3.0v7 M-2.5,-0.5L0,-3.0L2.5,-0.5"/>
  </g>
  <g id="arrowDown" transform="rotate(180) translate(-30 -48)">
    <use xlink:href="#rim"/>
    <path pointer-events="none" fill="none" stroke="white" stroke-width="1.5" d="M0,-3.0v7 M-2.5,-0.5L0,-3.0L2.5,-0.5"/>
  </g>
  <g id="arrowLeft" transform="rotate(270) translate(-36 17)">
    <use xlink:href="#rim"/>
    <path pointer-events="none" fill="none" stroke="white" stroke-width="1.5" d="M0,-3.0v7 M-2.5,-0.5L0,-3.0L2.5,-0.5"/>
  </g>
  <g id="resetDef">
    <use xlink:href="#rim2" fill="#404040"><set attributeName="fill" to="#808080" begin="reset.mouseover" end="reset.mouseout"/></use>
  </g>
</defs>
<script type="application/ecmascript">
var viewWidth = 822;
var viewHeight = 275;
var sectionId = 'dynsection-32';
</script>
<script type="application/ecmascript" xlink:href="svg.min.js"/>
<svg id="graph" class="graph">
<g id="viewport">
<title>ParticleLocationStatusToString</title>
<!-- Node1 -->
<g id="Node000001" class="node">
<title>Node1</title>
<g id="a_Node000001"><a xlink:title="A function that outputs the name of the current level in the ParticleLocation enum.">
<polygon fill="#999999" stroke="#666666" points="814,-93.5 679,-93.5 679,-63.5 814,-63.5 814,-93.5"/>
<text text-anchor="start" x="687" y="-81.5" font-family="Helvetica,sans-Serif" font-size="10.00">ParticleLocationStatusTo</text>
<text text-anchor="middle" x="746.5" y="-70.5" font-family="Helvetica,sans-Serif" font-size="10.00">String</text>
</a>
</g>
</g>
<!-- Node2 -->
<g id="Node000002" class="node">
<title>Node2</title>
<g id="a_Node000002"><a xlink:href="ParticleMotion_8c.html#a857de73a8c91691b5c08c57ab531ddd8" target="_top" xlink:title="Orchestrates the complete particle location and migration process for one timestep.">
<polygon fill="white" stroke="#666666" points="630.5,-134 498.5,-134 498.5,-115 630.5,-115 630.5,-134"/>
<text text-anchor="middle" x="564.5" y="-122" font-family="Helvetica,sans-Serif" font-size="10.00">LocateAllParticlesInGrid</text>
</a>
</g>
</g>
<!-- Node1&#45;&gt;Node2 -->
<g id="edge1_Node000001_Node000002" class="edge">
<title>Node1&#45;&gt;Node2</title>
<g id="a_edge1_Node000001_Node000002"><a xlink:title=" ">
<path fill="none" stroke="#63b8ff" d="M676.7,-96.08C651.58,-102.5 624.13,-109.52 602.79,-114.97"/>
<polygon fill="#63b8ff" stroke="#63b8ff" points="677.74,-99.43 686.56,-93.56 676.01,-92.65 677.74,-99.43"/>
</a>
</g>
</g>
<!-- Node14 -->
<g id="Node000014" class="node">
<title>Node14</title>
<g id="a_Node000014"><a xlink:href="test__logging_8c.html#a8342fa023f1c06dffef2ba8bcc3c6512" target="_top" xlink:title="Tests string&#45;conversion helpers for configured enums and unknown values.">
<polygon fill="white" stroke="#666666" points="643,-70 486,-70 486,-51 643,-51 643,-70"/>
<text text-anchor="middle" x="564.5" y="-58" font-family="Helvetica,sans-Serif" font-size="10.00">TestStringConversionHelpers</text>
</a>
</g>
</g>
<!-- Node1&#45;&gt;Node14 -->
<g id="edge18_Node000001_Node000014" class="edge">
<title>Node1&#45;&gt;Node14</title>
<g id="a_edge18_Node000001_Node000014"><a xlink:title=" ">
<path fill="none" stroke="#63b8ff" d="M668.79,-70.83C660.35,-69.99 651.75,-69.13 643.3,-68.28"/>
<polygon fill="#63b8ff" stroke="#63b8ff" points="668.69,-74.34 678.99,-71.85 669.38,-67.37 668.69,-74.34"/>
</a>
</g>
</g>
<!-- Node3 -->
<g id="Node000003" class="node">
<title>Node3</title>
<g id="a_Node000003"><a xlink:href="runloop_8c.html#a5cfb2f783604af7f20171d19f969d5d3" target="_top" xlink:title="Executes the main time&#45;marching loop for the particle simulation.">
<polygon fill="white" stroke="#666666" points="204,-267 93,-267 93,-248 204,-248 204,-267"/>
<text text-anchor="middle" x="148.5" y="-255" font-family="Helvetica,sans-Serif" font-size="10.00">AdvanceSimulation</text>
</a>
</g>
</g>
<!-- Node2&#45;&gt;Node3 -->
<g id="edge2_Node000002_Node000003" class="edge">
<title>Node2&#45;&gt;Node3</title>
<g id="a_edge2_Node000002_Node000003"><a xlink:title=" ">
<path fill="none" stroke="#63b8ff" d="M550.07,-142.12C530.81,-165.9 492.92,-207.46 450,-226.5 369.93,-262.01 266.45,-264.38 204.17,-261.74"/>
<polygon fill="#63b8ff" stroke="#63b8ff" points="552.84,-144.26 556.29,-134.24 547.35,-139.92 552.84,-144.26"/>
</a>
</g>
</g>
<!-- Node5 -->
<g id="Node000005" class="node">
<title>Node5</title>
<g id="a_Node000005"><a xlink:href="runloop_8c.html#aa5b3c3a0cd447931b47a01267c36acdd" target="_top" xlink:title="Finalizes the simulation setup at t=0, ensuring a consistent state before time marching.">
<polygon fill="white" stroke="#666666" points="423,-163.5 283,-163.5 283,-133.5 423,-133.5 423,-163.5"/>
<text text-anchor="start" x="291" y="-151.5" font-family="Helvetica,sans-Serif" font-size="10.00">PerformInitializedParticle</text>
<text text-anchor="middle" x="353" y="-140.5" font-family="Helvetica,sans-Serif" font-size="10.00">Setup</text>
</a>
</g>
</g>
<!-- Node2&#45;&gt;Node5 -->
<g id="edge4_Node000002_Node000005" class="edge">
<title>Node2&#45;&gt;Node5</title>
<g id="a_edge4_Node000002_Node000005"><a xlink:title=" ">
<path fill="none" stroke="#63b8ff" d="M488.39,-133.1C467.09,-135.54 444.01,-138.19 423.09,-140.59"/>
<polygon fill="#63b8ff" stroke="#63b8ff" points="488.82,-136.58 498.36,-131.96 488.03,-129.62 488.82,-136.58"/>
</a>
</g>
</g>
<!-- Node10 -->
<g id="Node000010" class="node">
<title>Node10</title>
<g id="a_Node000010"><a xlink:href="runloop_8c.html#ad8038ca2fcc4f0534e04d144c4ffbbef" target="_top" xlink:title="Finalizes the simulation state after particle and fluid data have been loaded from a restart.">
<polygon fill="white" stroke="#666666" points="430.5,-217 275.5,-217 275.5,-198 430.5,-198 430.5,-217"/>
<text text-anchor="middle" x="353" y="-205" font-family="Helvetica,sans-Serif" font-size="10.00">PerformLoadedParticleSetup</text>
</a>
</g>
</g>
<!-- Node2&#45;&gt;Node10 -->
<g id="edge12_Node000002_Node000010" class="edge">
<title>Node2&#45;&gt;Node10</title>
<g id="a_edge12_Node000002_Node000010"><a xlink:title=" ">
<path fill="none" stroke="#63b8ff" d="M532.42,-138.15C509.7,-147.99 478.09,-161.45 450,-172.5 427.05,-181.53 400.72,-191.07 381.45,-197.91"/>
<polygon fill="#63b8ff" stroke="#63b8ff" points="534.1,-141.23 541.88,-134.03 531.31,-134.81 534.1,-141.23"/>
</a>
</g>
</g>
<!-- Node11 -->
<g id="Node000011" class="node">
<title>Node11</title>
<g id="a_Node000011"><a xlink:href="test__runtime__kernels_8c.html#a1cb4150bb0ed4b809a02ee924ef898a2" target="_top" xlink:title="Tests the guess&#45;then&#45;verify orchestrator path for a local particle with an unknown prior cell.">
<polygon fill="white" stroke="#666666" points="450,-115.5 256,-115.5 256,-85.5 450,-85.5 450,-115.5"/>
<text text-anchor="start" x="264" y="-103.5" font-family="Helvetica,sans-Serif" font-size="10.00">TestLocateAllParticlesIn</text>
<text text-anchor="middle" x="353" y="-92.5" font-family="Helvetica,sans-Serif" font-size="10.00">GridGuessPathResolvesLocalParticle</text>
</a>
</g>
</g>
<!-- Node2&#45;&gt;Node11 -->
<g id="edge14_Node000002_Node000011" class="edge">
<title>Node2&#45;&gt;Node11</title>
<g id="a_edge14_Node000002_Node000011"><a xlink:title=" ">
<path fill="none" stroke="#63b8ff" d="M488.18,-115.87C475.87,-114.46 462.97,-112.98 450.24,-111.53"/>
<polygon fill="#63b8ff" stroke="#63b8ff" points="488.03,-119.38 498.36,-117.04 488.82,-112.42 488.03,-119.38"/>
</a>
</g>
</g>
<!-- Node13 -->
<g id="Node000013" class="node">
<title>Node13</title>
<g id="a_Node000013"><a xlink:href="test__runtime__kernels_8c.html#a986639fd0b8644cd9c1a60ef57344a6d" target="_top" xlink:title="Tests the location orchestrator fast path when a particle already carries a valid prior cell.">
<polygon fill="white" stroke="#666666" points="418.5,-67.5 287.5,-67.5 287.5,-37.5 418.5,-37.5 418.5,-67.5"/>
<text text-anchor="start" x="295.5" y="-55.5" font-family="Helvetica,sans-Serif" font-size="10.00">TestLocateAllParticlesIn</text>
<text text-anchor="middle" x="353" y="-44.5" font-family="Helvetica,sans-Serif" font-size="10.00">GridPriorCellFastPath</text>
</a>
</g>
</g>
<!-- Node2&#45;&gt;Node13 -->
<g id="edge16_Node000002_Node000013" class="edge">
<title>Node2&#45;&gt;Node13</title>
<g id="a_edge16_Node000002_Node000013"><a xlink:title=" ">
<path fill="none" stroke="#63b8ff" d="M533.99,-110.53C511.36,-100.18 479.16,-86.25 450,-76.5 439.98,-73.15 429.23,-70.03 418.69,-67.21"/>
<polygon fill="#63b8ff" stroke="#63b8ff" points="532.82,-113.84 543.36,-114.86 535.75,-107.49 532.82,-113.84"/>
</a>
</g>
</g>
<!-- Node4 -->
<g id="Node000004" class="node">
<title>Node4</title>
<g id="a_Node000004"><a xlink:href="simulator_8c.html#a3c04138a5bfe5d72780bb7e82a18e627" target="_top" xlink:title="Entry point for the solver executable.">
<polygon fill="white" stroke="#666666" points="41,-230 0,-230 0,-211 41,-211 41,-230"/>
<text text-anchor="middle" x="20.5" y="-218" font-family="Helvetica,sans-Serif" font-size="10.00">main</text>
</a>
</g>
</g>
<!-- Node3&#45;&gt;Node4 -->
<g id="edge3_Node000003_Node000004" class="edge">
<title>Node3&#45;&gt;Node4</title>
<g id="a_edge3_Node000003_Node000004"><a xlink:title=" ">
<path fill="none" stroke="#63b8ff" d="M97.71,-245.32C90.73,-243.46 83.67,-241.49 77,-239.5 65,-235.92 51.71,-231.39 41.15,-227.66"/>
<polygon fill="#63b8ff" stroke="#63b8ff" points="97.26,-248.82 107.82,-247.96 99.03,-242.05 97.26,-248.82"/>
</a>
</g>
</g>
<!-- Node5&#45;&gt;Node4 -->
<g id="edge7_Node000005_Node000004" class="edge">
<title>Node5&#45;&gt;Node4</title>
<g id="a_edge7_Node000005_Node000004"><a xlink:title=" ">
<path fill="none" stroke="#63b8ff" d="M272.75,-161.47C217.5,-171.14 142.29,-185.57 77,-202.5 64.94,-205.63 51.66,-209.91 41.11,-213.51"/>
<polygon fill="#63b8ff" stroke="#63b8ff" points="273.58,-164.88 282.83,-159.72 272.38,-157.98 273.58,-164.88"/>
</a>
</g>
</g>
<!-- Node6 -->
<g id="Node000006" class="node">
<title>Node6</title>
<g id="a_Node000006"><a xlink:href="runloop_8c.html#a7bc2bae7b01f179706b367c8637534c2" target="_top" xlink:title="Performs post&#45;load/post&#45;init consistency checks for a restarted simulation.">
<polygon fill="white" stroke="#666666" points="206,-230 91,-230 91,-211 206,-211 206,-230"/>
<text text-anchor="middle" x="148.5" y="-218" font-family="Helvetica,sans-Serif" font-size="10.00">FinalizeRestartState</text>
</a>
</g>
</g>
<!-- Node5&#45;&gt;Node6 -->
<g id="edge5_Node000005_Node000006" class="edge">
<title>Node5&#45;&gt;Node6</title>
<g id="a_edge5_Node000005_Node000006"><a xlink:title=" ">
<path fill="none" stroke="#63b8ff" d="M301.85,-167.01C277.23,-176.03 247.11,-186.96 220,-196.5 206.22,-201.35 190.87,-206.6 178.02,-210.94"/>
<polygon fill="#63b8ff" stroke="#63b8ff" points="303.16,-170.26 311.34,-163.53 300.75,-163.69 303.16,-170.26"/>
</a>
</g>
</g>
<!-- Node7 -->
<g id="Node000007" class="node">
<title>Node7</title>
<g id="a_Node000007"><a xlink:href="test__setup__lifecycle_8c.html#add314563505cfe38b11e68729da858d0" target="_top" xlink:title="Tests particle&#45;swarm initialization and deterministic settlement on a tiny fully initialized case.">
<polygon fill="white" stroke="#666666" points="220,-154.5 77,-154.5 77,-124.5 220,-124.5 220,-154.5"/>
<text text-anchor="start" x="85" y="-142.5" font-family="Helvetica,sans-Serif" font-size="10.00">TestSetupLifecycleParticle</text>
<text text-anchor="middle" x="148.5" y="-131.5" font-family="Helvetica,sans-Serif" font-size="10.00">Initialization</text>
</a>
</g>
</g>
<!-- Node5&#45;&gt;Node7 -->
<g id="edge8_Node000005_Node000007" class="edge">
<title>Node5&#45;&gt;Node7</title>
<g id="a_edge8_Node000005_Node000007"><a xlink:title=" ">
<path fill="none" stroke="#63b8ff" d="M272.76,-144.98C255.36,-144.21 237.06,-143.39 220.03,-142.63"/>
<polygon fill="#63b8ff" stroke="#63b8ff" points="272.73,-148.48 282.88,-145.43 273.04,-141.49 272.73,-148.48"/>
</a>
</g>
</g>
<!-- Node9 -->
<g id="Node000009" class="node">
<title>Node9</title>
<g id="a_Node000009"><a xlink:href="test__setup__lifecycle_8c.html#a6a7f65cb5c776aab7e072722434d3e82" target="_top" xlink:title="Tests that step&#45;zero scalar verification emits scatter_metrics.csv during initialized setup.">
<polygon fill="white" stroke="#666666" points="219.5,-106.5 77.5,-106.5 77.5,-76.5 219.5,-76.5 219.5,-106.5"/>
<text text-anchor="start" x="85.5" y="-94.5" font-family="Helvetica,sans-Serif" font-size="10.00">TestSetupLifecycleScatter</text>
<text text-anchor="middle" x="148.5" y="-83.5" font-family="Helvetica,sans-Serif" font-size="10.00">MetricsAtStepZero</text>
</a>
</g>
</g>
<!-- Node5&#45;&gt;Node9 -->
<g id="edge10_Node000005_Node000009" class="edge">
<title>Node5&#45;&gt;Node9</title>
<g id="a_edge10_Node000005_Node000009"><a xlink:title=" ">
<path fill="none" stroke="#63b8ff" d="M279.84,-130.92C271.78,-128.82 263.7,-126.65 256,-124.5 236.24,-118.97 214.58,-112.37 195.99,-106.52"/>
<polygon fill="#63b8ff" stroke="#63b8ff" points="279.08,-134.34 289.64,-133.44 280.83,-127.56 279.08,-134.34"/>
</a>
</g>
</g>
<!-- Node6&#45;&gt;Node4 -->
<g id="edge6_Node000006_Node000004" class="edge">
<title>Node6&#45;&gt;Node4</title>
<g id="a_edge6_Node000006_Node000004"><a xlink:title=" ">
<path fill="none" stroke="#63b8ff" d="M80.74,-220.5C66.26,-220.5 52.05,-220.5 41.18,-220.5"/>
<polygon fill="#63b8ff" stroke="#63b8ff" points="80.77,-224 90.77,-220.5 80.77,-217 80.77,-224"/>
</a>
</g>
</g>
<!-- Node8 -->
<g id="Node000008" class="node">
<title>Node8</title>
<g id="a_Node000008"><a xlink:href="test__setup__lifecycle_8c.html#a3c04138a5bfe5d72780bb7e82a18e627" target="_top" xlink:title="Runs the unit&#45;setup PETSc test binary.">
<polygon fill="white" stroke="#666666" points="41,-125 0,-125 0,-106 41,-106 41,-125"/>
<text text-anchor="middle" x="20.5" y="-113" font-family="Helvetica,sans-Serif" font-size="10.00">main</text>
</a>
</g>
</g>
<!-- Node7&#45;&gt;Node8 -->
<g id="edge9_Node000007_Node000008" class="edge">
<title>Node7&#45;&gt;Node8</title>
<g id="a_edge9_Node000007_Node000008"><a xlink:title=" ">
<path fill="none" stroke="#63b8ff" d="M66.74,-124.12C57.29,-122.32 48.42,-120.63 41.08,-119.23"/>
<polygon fill="#63b8ff" stroke="#63b8ff" points="66.29,-127.59 76.77,-126.03 67.6,-120.72 66.29,-127.59"/>
</a>
</g>
</g>
<!-- Node9&#45;&gt;Node8 -->
<g id="edge11_Node000009_Node000008" class="edge">
<title>Node9&#45;&gt;Node8</title>
<g id="a_edge11_Node000009_Node000008"><a xlink:title=" ">
<path fill="none" stroke="#63b8ff" d="M67.59,-106.72C57.84,-108.58 48.67,-110.32 41.12,-111.76"/>
<polygon fill="#63b8ff" stroke="#63b8ff" points="68.33,-110.14 77.5,-104.83 67.02,-103.27 68.33,-110.14"/>
</a>
</g>
</g>
<!-- Node10&#45;&gt;Node6 -->
<g id="edge13_Node000010_Node000006" class="edge">
<title>Node10&#45;&gt;Node6</title>
<g id="a_edge13_Node000010_Node000006"><a xlink:title=" ">
<path fill="none" stroke="#63b8ff" d="M265.39,-213.06C245.39,-214.34 224.62,-215.68 206.28,-216.86"/>
<polygon fill="#63b8ff" stroke="#63b8ff" points="265.69,-216.55 275.44,-212.41 265.24,-209.56 265.69,-216.55"/>
</a>
</g>
</g>
<!-- Node12 -->
<g id="Node000012" class="node">
<title>Node12</title>
<g id="a_Node000012"><a xlink:href="test__runtime__kernels_8c.html#a3c04138a5bfe5d72780bb7e82a18e627" target="_top" xlink:title="Runs the unit&#45;runtime PETSc test binary.">
<polygon fill="white" stroke="#666666" points="169,-58 128,-58 128,-39 169,-39 169,-58"/>
<text text-anchor="middle" x="148.5" y="-46" font-family="Helvetica,sans-Serif" font-size="10.00">main</text>
</a>
</g>
</g>
<!-- Node11&#45;&gt;Node12 -->
<g id="edge15_Node000011_Node000012" class="edge">
<title>Node11&#45;&gt;Node12</title>
<g id="a_edge15_Node000011_Node000012"><a xlink:title=" ">
<path fill="none" stroke="#63b8ff" d="M281.32,-82.93C272.79,-80.78 264.19,-78.6 256,-76.5 225.63,-68.71 190.46,-59.41 169.11,-53.73"/>
<polygon fill="#63b8ff" stroke="#63b8ff" points="280.74,-86.4 291.29,-85.44 282.44,-79.61 280.74,-86.4"/>
</a>
</g>
</g>
<!-- Node13&#45;&gt;Node12 -->
<g id="edge17_Node000013_Node000012" class="edge">
<title>Node13&#45;&gt;Node12</title>
<g id="a_edge17_Node000013_Node000012"><a xlink:title=" ">
<path fill="none" stroke="#63b8ff" d="M277.12,-51.02C238.31,-50.25 193.95,-49.38 169.08,-48.89"/>
<polygon fill="#63b8ff" stroke="#63b8ff" points="277.3,-54.53 287.37,-51.22 277.44,-47.53 277.3,-54.53"/>
</a>
</g>
</g>
<!-- Node15 -->
<g id="Node000015" class="node">
<title>Node15</title>
<g id="a_Node000015"><a xlink:href="test__logging_8c.html#a3c04138a5bfe5d72780bb7e82a18e627" target="_top" xlink:title="Runs the unit&#45;logging PETSc test binary.">
<polygon fill="white" stroke="#666666" points="373.5,-19 332.5,-19 332.5,0 373.5,0 373.5,-19"/>
<text text-anchor="middle" x="353" y="-7" font-family="Helvetica,sans-Serif" font-size="10.00">main</text>
</a>
</g>
</g>
<!-- Node14&#45;&gt;Node15 -->
<g id="edge19_Node000014_Node000015" class="edge">
<title>Node14&#45;&gt;Node15</title>
<g id="a_edge19_Node000014_Node000015"><a xlink:title=" ">
<path fill="none" stroke="#63b8ff" d="M522.58,-48.12C501.08,-41.82 474.23,-34.3 450,-28.5 423.73,-22.21 393.06,-16.4 373.59,-12.91"/>
<polygon fill="#63b8ff" stroke="#63b8ff" points="521.78,-51.53 532.36,-51 523.76,-44.81 521.78,-51.53"/>
</a>
</g>
</g>
</g>
</svg>

<g id="navigator" transform="translate(0 0)" fill="#404254">
  <rect fill="#f2f5e9" fill-opacity="0.5" stroke="#606060" stroke-width=".5" x="0" y="0" width="60" height="60"/>
  <use id="zoomplus" xlink:href="#zoomPlus" x="17" y="9" onmousedown="handleZoom(evt,'in')"/>
  <use id="zoomminus" xlink:href="#zoomMin" x="42" y="9" onmousedown="handleZoom(evt,'out')"/>
  <use id="reset" xlink:href="#resetDef" x="30" y="36" onmousedown="handleReset()"/>
   <use id="arrowup" xlink:href="#arrowUp" x="0" y="0" onmousedown="handlePan(0,-1)"/>
  <use id="arrowright" xlink:href="#arrowRight" x="0" y="0" onmousedown="handlePan(1,0)"/>
  <use id="arrowdown" xlink:href="#arrowDown" x="0" y="0" onmousedown="handlePan(0,1)"/>
  <use id="arrowleft" xlink:href="#arrowLeft" x="0" y="0" onmousedown="handlePan(-1,0)"/>
</g>
<svg viewBox="0 0 15 15" width="100%" height="30px" preserveAspectRatio="xMaxYMin meet">
 <g id="arrow_out" transform="scale(0.3 0.3)">
  <a xlink:href="logging_8h_aa7faf5df9854e921411f9768319237e9_icgraph_org.svg" target="_base">
   <rect id="button" ry="5" rx="5" y="6" x="6" height="38" width="38"
        fill="#f2f5e9" fill-opacity="0.5" stroke="#606060" stroke-width="1.0"/>
   <path id="arrow"
     d="M 11.500037,31.436501 C 11.940474,20.09759 22.043105,11.32322 32.158766,21.979434 L 37.068811,17.246167 C 37.068811,17.246167 37.088388,32 37.088388,32 L 22.160133,31.978069 C 22.160133,31.978069 26.997745,27.140456 26.997745,27.140456 C 18.528582,18.264221 13.291696,25.230495 11.500037,31.436501 z"
     style="fill:#404040;"/>
  </a>
 </g>
</svg>

<style type='text/css'>
<![CDATA[
[data-mouse-over-selected='false'] { opacity: 0.7; }
[data-mouse-over-selected='true']  { opacity: 1.0; }
]]>
</style>
<script type="application/ecmascript"><![CDATA[
document.addEventListener('DOMContentLoaded', (event) => {
  highlightEdges();
  highlightAdjacentNodes();
});
]]></script>
</svg>
