<?xml version="1.0" encoding="UTF-8" standalone="no"?>
<!DOCTYPE svg PUBLIC "-//W3C//DTD SVG 1.1//EN"
 "http://www.w3.org/Graphics/SVG/1.1/DTD/svg11.dtd">
<!-- Generated by graphviz version 2.43.0 (0)
 -->
<!-- Title: poisson.h Pages: 1 -->
<svg width="289pt" height="247pt"
 viewBox="0.00 0.00 288.50 247.00" xmlns="http://www.w3.org/2000/svg" xmlns:xlink="http://www.w3.org/1999/xlink">
<g id="graph0" class="graph" transform="scale(1 1) rotate(0) translate(4 243)">
<title>poisson.h</title>
<!-- Node1 -->
<g id="Node000001" class="node">
<title>Node1</title>
<g id="a_Node000001"><a xlink:title=" ">
<polygon fill="#999999" stroke="#666666" points="101.5,-239 38.5,-239 38.5,-220 101.5,-220 101.5,-239"/>
<text text-anchor="middle" x="70" y="-227" font-family="Helvetica,sans-Serif" font-size="10.00">poisson.h</text>
</a>
</g>
</g>
<!-- Node2 -->
<g id="Node000002" class="node">
<title>Node2</title>
<g id="a_Node000002"><a xlink:href="poisson_8c.html" target="_top" xlink:title=" ">
<polygon fill="white" stroke="#666666" points="62,-129 0,-129 0,-110 62,-110 62,-129"/>
<text text-anchor="middle" x="31" y="-117" font-family="Helvetica,sans-Serif" font-size="10.00">poisson.c</text>
</a>
</g>
</g>
<!-- Node1&#45;&gt;Node2 -->
<g id="edge1_Node000001_Node000002" class="edge">
<title>Node1&#45;&gt;Node2</title>
<g id="a_edge1_Node000001_Node000002"><a xlink:title=" ">
<path fill="none" stroke="#63b8ff" d="M63.36,-210.12C54.86,-186.56 40.45,-146.66 34.13,-129.16"/>
<polygon fill="#63b8ff" stroke="#63b8ff" points="60.12,-211.45 66.81,-219.66 66.7,-209.07 60.12,-211.45"/>
</a>
</g>
</g>
<!-- Node3 -->
<g id="Node000003" class="node">
<title>Node3</title>
<g id="a_Node000003"><a xlink:href="solvers_8h.html" target="_top" xlink:title=" ">
<polygon fill="white" stroke="#666666" points="135.5,-184 74.5,-184 74.5,-165 135.5,-165 135.5,-184"/>
<text text-anchor="middle" x="105" y="-172" font-family="Helvetica,sans-Serif" font-size="10.00">solvers.h</text>
</a>
</g>
</g>
<!-- Node1&#45;&gt;Node3 -->
<g id="edge2_Node000001_Node000003" class="edge">
<title>Node1&#45;&gt;Node3</title>
<g id="a_edge2_Node000001_Node000003"><a xlink:title=" ">
<path fill="none" stroke="#63b8ff" d="M81.3,-211.39C87.32,-202.27 94.47,-191.45 99.33,-184.09"/>
<polygon fill="#63b8ff" stroke="#63b8ff" points="78.37,-209.47 75.78,-219.75 84.21,-213.33 78.37,-209.47"/>
</a>
</g>
</g>
<!-- Node3&#45;&gt;Node2 -->
<g id="edge3_Node000003_Node000002" class="edge">
<title>Node3&#45;&gt;Node2</title>
<g id="a_edge3_Node000003_Node000002"><a xlink:title=" ">
<path fill="none" stroke="#63b8ff" d="M84.97,-159.15C71.59,-149.57 54.44,-137.29 43.11,-129.17"/>
<polygon fill="#63b8ff" stroke="#63b8ff" points="82.94,-162.01 93.11,-164.98 87.02,-156.32 82.94,-162.01"/>
</a>
</g>
</g>
<!-- Node4 -->
<g id="Node000004" class="node">
<title>Node4</title>
<g id="a_Node000004"><a xlink:href="runloop_8h.html" target="_top" xlink:title=" ">
<polygon fill="white" stroke="#666666" points="142,-129 80,-129 80,-110 142,-110 142,-129"/>
<text text-anchor="middle" x="111" y="-117" font-family="Helvetica,sans-Serif" font-size="10.00">runloop.h</text>
</a>
</g>
</g>
<!-- Node3&#45;&gt;Node4 -->
<g id="edge4_Node000003_Node000004" class="edge">
<title>Node3&#45;&gt;Node4</title>
<g id="a_edge4_Node000003_Node000004"><a xlink:title=" ">
<path fill="none" stroke="#63b8ff" d="M107.13,-154.66C108.12,-145.93 109.25,-135.99 110.03,-129.09"/>
<polygon fill="#63b8ff" stroke="#63b8ff" points="103.64,-154.42 105.99,-164.75 110.59,-155.21 103.64,-154.42"/>
</a>
</g>
</g>
<!-- Node9 -->
<g id="Node000009" class="node">
<title>Node9</title>
<g id="a_Node000009"><a xlink:href="solvers_8c.html" target="_top" xlink:title=" ">
<polygon fill="white" stroke="#666666" points="220,-129 160,-129 160,-110 220,-110 220,-129"/>
<text text-anchor="middle" x="190" y="-117" font-family="Helvetica,sans-Serif" font-size="10.00">solvers.c</text>
</a>
</g>
</g>
<!-- Node3&#45;&gt;Node9 -->
<g id="edge10_Node000003_Node000009" class="edge">
<title>Node3&#45;&gt;Node9</title>
<g id="a_edge10_Node000003_Node000009"><a xlink:title=" ">
<path fill="none" stroke="#63b8ff" d="M127.57,-159.42C143,-149.81 162.95,-137.37 176.09,-129.17"/>
<polygon fill="#63b8ff" stroke="#63b8ff" points="125.29,-156.72 118.66,-164.98 128.99,-162.66 125.29,-156.72"/>
</a>
</g>
</g>
<!-- Node5 -->
<g id="Node000005" class="node">
<title>Node5</title>
<g id="a_Node000005"><a xlink:href="initialcondition_8h.html" target="_top" xlink:title=" ">
<polygon fill="white" stroke="#666666" points="111,-74 13,-74 13,-55 111,-55 111,-74"/>
<text text-anchor="middle" x="62" y="-62" font-family="Helvetica,sans-Serif" font-size="10.00">initialcondition.h</text>
</a>
</g>
</g>
<!-- Node4&#45;&gt;Node5 -->
<g id="edge5_Node000004_Node000005" class="edge">
<title>Node4&#45;&gt;Node5</title>
<g id="a_edge5_Node000004_Node000005"><a xlink:title=" ">
<path fill="none" stroke="#63b8ff" d="M90.51,-103.04C80.83,-93.64 70.39,-81.98 64.87,-74.17"/>
<polygon fill="#63b8ff" stroke="#63b8ff" points="88.3,-105.76 98.01,-109.98 93.05,-100.62 88.3,-105.76"/>
</a>
</g>
</g>
<!-- Node7 -->
<g id="Node000007" class="node">
<title>Node7</title>
<g id="a_Node000007"><a xlink:href="runloop_8c.html" target="_top" xlink:title="Test program for DMSwarm interpolation using the fdf&#45;curvIB method.">
<polygon fill="white" stroke="#666666" points="191,-74 129,-74 129,-55 191,-55 191,-74"/>
<text text-anchor="middle" x="160" y="-62" font-family="Helvetica,sans-Serif" font-size="10.00">runloop.c</text>
</a>
</g>
</g>
<!-- Node4&#45;&gt;Node7 -->
<g id="edge8_Node000004_Node000007" class="edge">
<title>Node4&#45;&gt;Node7</title>
<g id="a_edge8_Node000004_Node000007"><a xlink:title=" ">
<path fill="none" stroke="#63b8ff" d="M126.03,-102.24C134.62,-92.95 145.04,-81.68 152.06,-74.09"/>
<polygon fill="#63b8ff" stroke="#63b8ff" points="123.31,-100.03 119.09,-109.75 128.45,-104.78 123.31,-100.03"/>
</a>
</g>
</g>
<!-- Node8 -->
<g id="Node000008" class="node">
<title>Node8</title>
<g id="a_Node000008"><a xlink:href="simulator_8c.html" target="_top" xlink:title="Main driver for the unified CFD and Lagrangian particle solver.">
<polygon fill="white" stroke="#666666" points="280.5,-74 209.5,-74 209.5,-55 280.5,-55 280.5,-74"/>
<text text-anchor="middle" x="245" y="-62" font-family="Helvetica,sans-Serif" font-size="10.00">simulator.c</text>
</a>
</g>
</g>
<!-- Node4&#45;&gt;Node8 -->
<g id="edge9_Node000004_Node000008" class="edge">
<title>Node4&#45;&gt;Node8</title>
<g id="a_edge9_Node000004_Node000008"><a xlink:title=" ">
<path fill="none" stroke="#63b8ff" d="M141.87,-106.29C166.7,-96.47 200.99,-82.91 223.08,-74.17"/>
<polygon fill="#63b8ff" stroke="#63b8ff" points="140.54,-103.05 132.53,-109.98 143.12,-109.56 140.54,-103.05"/>
</a>
</g>
</g>
<!-- Node5&#45;&gt;Node4 -->
<g id="edge7_Node000005_Node000004" class="edge">
<title>Node5&#45;&gt;Node4</title>
<g id="a_edge7_Node000005_Node000004"><a xlink:title=" ">
<path fill="none" stroke="#63b8ff" d="M82.54,-81C92.18,-90.37 102.54,-101.95 108.07,-109.75"/>
<polygon fill="#63b8ff" stroke="#63b8ff" points="84.79,-78.32 75.07,-74.09 80.03,-83.45 84.79,-78.32"/>
</a>
</g>
</g>
<!-- Node6 -->
<g id="Node000006" class="node">
<title>Node6</title>
<g id="a_Node000006"><a xlink:href="initialcondition_8c.html" target="_top" xlink:title="// Setup the Initial conditions for different cases.">
<polygon fill="white" stroke="#666666" points="111,-19 13,-19 13,0 111,0 111,-19"/>
<text text-anchor="middle" x="62" y="-7" font-family="Helvetica,sans-Serif" font-size="10.00">initialcondition.c</text>
</a>
</g>
</g>
<!-- Node5&#45;&gt;Node6 -->
<g id="edge6_Node000005_Node000006" class="edge">
<title>Node5&#45;&gt;Node6</title>
<g id="a_edge6_Node000005_Node000006"><a xlink:title=" ">
<path fill="none" stroke="#63b8ff" d="M62,-44.66C62,-35.93 62,-25.99 62,-19.09"/>
<polygon fill="#63b8ff" stroke="#63b8ff" points="58.5,-44.75 62,-54.75 65.5,-44.75 58.5,-44.75"/>
</a>
</g>
</g>
</g>
</svg>
