<?xml version="1.0" encoding="UTF-8" standalone="no"?>
<!DOCTYPE svg PUBLIC "-//W3C//DTD SVG 1.1//EN"
 "http://www.w3.org/Graphics/SVG/1.1/DTD/svg11.dtd">
<!-- Generated by graphviz version 2.43.0 (0)
 -->
<!-- Title: EulerianDataProcessingPipeline Pages: 1 -->
<!--zoomable 157 -->

<svg id="main" version="1.1" xmlns="http://www.w3.org/2000/svg" xmlns:xlink="http://www.w3.org/1999/xlink" xml:space="preserve" onload="init(evt)">
<style type="text/css"><![CDATA[
.node, .edge {opacity: 0.7;}
.node.selected, .edge.selected {opacity: 1;}
.edge:hover path { stroke: red; }
.edge:hover polygon { stroke: red; fill: red; }
]]></style>

<defs>
  <circle id="rim" cx="0" cy="0" r="7"/>
  <circle id="rim2" cx="0" cy="0" r="3.5"/>
  <g id="zoomPlus">
    <use xlink:href="#rim" fill="#404040"><set attributeName="fill" to="#808080" begin="zoomplus.mouseover" end="zoomplus.mouseout"/></use>
    <path d="M-4,0h8M0,-4v8" fill="none" stroke="white" stroke-width="1.5" pointer-events="none"/>
  </g>
  <g id="zoomMin">
    <use xlink:href="#rim" fill="#404040"><set attributeName="fill" to="#808080" begin="zoomminus.mouseover" end="zoomminus.mouseout"/></use>
    <path d="M-4,0h8" fill="none" stroke="white" stroke-width="1.5" pointer-events="none"/>
  </g>
  <g id="arrowUp" transform="translate(30 24)">
    <use xlink:href="#rim"/>
    <path pointer-events="none" fill="none" stroke="white" stroke-width="1.5" d="M0,-3.0v7 M-2.5,-0.5L0,-3.0L2.5,-0.5"/>
  </g>
  <g id="arrowRight" transform="rotate(90) translate(36 -43)">
    <use xlink:href="#rim"/>
    <path pointer-events="none" fill="none" stroke="white" stroke-width="1.5" d="M0,-3.0v7 M-2.5,-0.5L0,-3.0L2.5,-0.5"/>
  </g>
  <g id="arrowDown" transform="rotate(180) translate(-30 -48)">
    <use xlink:href="#rim"/>
    <path pointer-events="none" fill="none" stroke="white" stroke-width="1.5" d="M0,-3.0v7 M-2.5,-0.5L0,-3.0L2.5,-0.5"/>
  </g>
  <g id="arrowLeft" transform="rotate(270) translate(-36 17)">
    <use xlink:href="#rim"/>
    <path pointer-events="none" fill="none" stroke="white" stroke-width="1.5" d="M0,-3.0v7 M-2.5,-0.5L0,-3.0L2.5,-0.5"/>
  </g>
  <g id="resetDef">
    <use xlink:href="#rim2" fill="#404040"><set attributeName="fill" to="#808080" begin="reset.mouseover" end="reset.mouseout"/></use>
  </g>
</defs>
<script type="application/ecmascript">
var viewWidth = 817;
var viewHeight = 157;
var sectionId = 'dynsection-3';
</script>
<script type="application/ecmascript" xlink:href="svg.min.js"/>
<svg id="graph" class="graph">
<g id="viewport">
<title>EulerianDataProcessingPipeline</title>
<!-- Node1 -->
<g id="Node000001" class="node">
<title>Node1</title>
<g id="a_Node000001"><a xlink:title="Implementation of EulerianDataProcessingPipeline().">
<polygon fill="#999999" stroke="#666666" points="171,-74 0,-74 0,-55 171,-55 171,-74"/>
<text text-anchor="middle" x="85.5" y="-62" font-family="Helvetica,sans-Serif" font-size="10.00">EulerianDataProcessingPipeline</text>
</a>
</g>
</g>
<!-- Node2 -->
<g id="Node000002" class="node">
<title>Node2</title>
<g id="a_Node000002"><a xlink:href="postprocessing__kernels_8c.html#ad5b0c0f1721b13944b83a57f2471cd02" target="_top" xlink:title="Interpolates a cell&#45;centered field to nodal locations using local stencil averaging.">
<polygon fill="white" stroke="#666666" points="337,-130 208,-130 208,-111 337,-111 337,-130"/>
<text text-anchor="middle" x="272.5" y="-118" font-family="Helvetica,sans-Serif" font-size="10.00">ComputeNodalAverage</text>
</a>
</g>
</g>
<!-- Node1&#45;&gt;Node2 -->
<g id="edge1_Node000001_Node000002" class="edge">
<title>Node1&#45;&gt;Node2</title>
<g id="a_edge1_Node000001_Node000002"><a xlink:title=" ">
<path fill="none" stroke="#63b8ff" d="M117.18,-74.03C141.51,-81.56 176.4,-92.3 207,-101.5 214.07,-103.63 221.58,-105.86 228.89,-108.02"/>
<polygon fill="#63b8ff" stroke="#63b8ff" points="228.08,-111.43 238.67,-110.91 230.06,-104.72 228.08,-111.43"/>
</a>
</g>
</g>
<!-- Node10 -->
<g id="Node000010" class="node">
<title>Node10</title>
<g id="a_Node000010"><a xlink:href="postprocessing__kernels_8c.html#a303c5afb89d6fdaab3e40f9371d8f1b2" target="_top" xlink:title="Computes the Q&#45;criterion diagnostic from the local velocity&#45;gradient tensor.">
<polygon fill="white" stroke="#666666" points="327.5,-93 217.5,-93 217.5,-74 327.5,-74 327.5,-93"/>
<text text-anchor="middle" x="272.5" y="-81" font-family="Helvetica,sans-Serif" font-size="10.00">ComputeQCriterion</text>
</a>
</g>
</g>
<!-- Node1&#45;&gt;Node10 -->
<g id="edge9_Node000001_Node000010" class="edge">
<title>Node1&#45;&gt;Node10</title>
<g id="a_edge9_Node000001_Node000010"><a xlink:title=" ">
<path fill="none" stroke="#63b8ff" d="M171.15,-73.19C183.29,-74.44 195.61,-75.71 207.28,-76.9"/>
<polygon fill="#63b8ff" stroke="#63b8ff" points="207.02,-80.4 217.33,-77.94 207.74,-73.43 207.02,-80.4"/>
</a>
</g>
</g>
<!-- Node11 -->
<g id="Node000011" class="node">
<title>Node11</title>
<g id="a_Node000011"><a xlink:href="postprocessing__kernels_8c.html#a86d13bca79c1355ce808509a999a1d88" target="_top" xlink:title="Normalizes a relative scalar field using the configured reference pressure scale.">
<polygon fill="white" stroke="#666666" points="338,-56 207,-56 207,-37 338,-37 338,-56"/>
<text text-anchor="middle" x="272.5" y="-44" font-family="Helvetica,sans-Serif" font-size="10.00">NormalizeRelativeField</text>
</a>
</g>
</g>
<!-- Node1&#45;&gt;Node11 -->
<g id="edge11_Node000001_Node000011" class="edge">
<title>Node1&#45;&gt;Node11</title>
<g id="a_edge11_Node000001_Node000011"><a xlink:title=" ">
<path fill="none" stroke="#63b8ff" d="M171.15,-56.26C179.67,-55.43 188.28,-54.6 196.69,-53.78"/>
<polygon fill="#63b8ff" stroke="#63b8ff" points="197.22,-57.24 206.83,-52.79 196.54,-50.28 197.22,-57.24"/>
</a>
</g>
</g>
<!-- Node12 -->
<g id="Node000012" class="node">
<title>Node12</title>
<g id="a_Node000012"><a xlink:href="io_8c.html#a61850e757fea41eb461a930936c34401" target="_top" xlink:title="Removes leading and trailing ASCII whitespace from a mutable string.">
<polygon fill="white" stroke="#666666" points="320,-19 225,-19 225,0 320,0 320,-19"/>
<text text-anchor="middle" x="272.5" y="-7" font-family="Helvetica,sans-Serif" font-size="10.00">TrimWhitespace</text>
</a>
</g>
</g>
<!-- Node1&#45;&gt;Node12 -->
<g id="edge12_Node000001_Node000012" class="edge">
<title>Node1&#45;&gt;Node12</title>
<g id="a_edge12_Node000001_Node000012"><a xlink:title=" ">
<path fill="none" stroke="#63b8ff" d="M117.14,-54.85C141.46,-47.26 176.34,-36.48 207,-27.5 213.45,-25.61 220.27,-23.66 226.97,-21.77"/>
<polygon fill="#63b8ff" stroke="#63b8ff" points="227.96,-25.12 236.64,-19.05 226.07,-18.38 227.96,-25.12"/>
</a>
</g>
</g>
<!-- Node3 -->
<g id="Node000003" class="node">
<title>Node3</title>
<g id="a_Node000003"><a xlink:href="field__catalog_8c.html#a0ce7c6714d9d153ebfc0d9987a4e0856" target="_top" xlink:title="Resolve a user&#45;facing field name once into its typed identity.">
<polygon fill="white" stroke="#666666" points="481,-130 378,-130 378,-111 481,-111 481,-130"/>
<text text-anchor="middle" x="429.5" y="-118" font-family="Helvetica,sans-Serif" font-size="10.00">FieldIdFromName</text>
</a>
</g>
</g>
<!-- Node2&#45;&gt;Node3 -->
<g id="edge2_Node000002_Node000003" class="edge">
<title>Node2&#45;&gt;Node3</title>
<g id="a_edge2_Node000002_Node000003"><a xlink:title=" ">
<path fill="none" stroke="#63b8ff" d="M337.44,-120.5C347.47,-120.5 357.8,-120.5 367.76,-120.5"/>
<polygon fill="#63b8ff" stroke="#63b8ff" points="367.96,-124 377.96,-120.5 367.96,-117 367.96,-124"/>
</a>
</g>
</g>
<!-- Node4 -->
<g id="Node000004" class="node">
<title>Node4</title>
<g id="a_Node000004"><a xlink:href="setup_8c.html#ac3268b7f32258fd24c02cfd44dc5f18d" target="_top" xlink:title="Updates the local vector (including ghost points) from its corresponding global vector.">
<polygon fill="white" stroke="#666666" points="485,-93 374,-93 374,-74 485,-74 485,-93"/>
<text text-anchor="middle" x="429.5" y="-81" font-family="Helvetica,sans-Serif" font-size="10.00">UpdateLocalGhosts</text>
</a>
</g>
</g>
<!-- Node2&#45;&gt;Node4 -->
<g id="edge3_Node000002_Node000004" class="edge">
<title>Node2&#45;&gt;Node4</title>
<g id="a_edge3_Node000002_Node000004"><a xlink:title=" ">
<path fill="none" stroke="#63b8ff" d="M313.42,-110.97C333.32,-106.22 357.58,-100.43 378.69,-95.39"/>
<polygon fill="#63b8ff" stroke="#63b8ff" points="379.54,-98.79 388.45,-93.06 377.91,-91.98 379.54,-98.79"/>
</a>
</g>
</g>
<!-- Node5 -->
<g id="Node000005" class="node">
<title>Node5</title>
<g id="a_Node000005"><a xlink:href="field__catalog_8c.html#a8e973bba212aed4167b3f294d220384e" target="_top" xlink:title="Resolve the existing DM and global/local vectors for one field.">
<polygon fill="white" stroke="#666666" points="634,-149 553,-149 553,-130 634,-130 634,-149"/>
<text text-anchor="middle" x="593.5" y="-137" font-family="Helvetica,sans-Serif" font-size="10.00">FieldGetView</text>
</a>
</g>
</g>
<!-- Node4&#45;&gt;Node5 -->
<g id="edge4_Node000004_Node000005" class="edge">
<title>Node4&#45;&gt;Node5</title>
<g id="a_edge4_Node000004_Node000005"><a xlink:title=" ">
<path fill="none" stroke="#63b8ff" d="M462.53,-93.09C470,-95.6 477.85,-98.46 485,-101.5 501.65,-108.58 504.15,-113.91 521,-120.5 527.99,-123.23 535.51,-125.71 542.95,-127.9"/>
<polygon fill="#63b8ff" stroke="#63b8ff" points="542.08,-131.29 552.65,-130.61 543.97,-124.55 542.08,-131.29"/>
</a>
</g>
</g>
<!-- Node7 -->
<g id="Node000007" class="node">
<title>Node7</title>
<g id="a_Node000007"><a xlink:href="logging_8c.html#a9585f583c260f40a73f2490914edc689" target="_top" xlink:title="Retrieves the current logging level from the environment variable LOG_LEVEL.">
<polygon fill="white" stroke="#666666" points="634.5,-112 552.5,-112 552.5,-93 634.5,-93 634.5,-112"/>
<text text-anchor="middle" x="593.5" y="-100" font-family="Helvetica,sans-Serif" font-size="10.00">get_log_level</text>
</a>
</g>
</g>
<!-- Node4&#45;&gt;Node7 -->
<g id="edge6_Node000004_Node000007" class="edge">
<title>Node4&#45;&gt;Node7</title>
<g id="a_edge6_Node000004_Node000007"><a xlink:title=" ">
<path fill="none" stroke="#63b8ff" d="M485.35,-89.93C503.77,-92.09 524.22,-94.49 542.27,-96.61"/>
<polygon fill="#63b8ff" stroke="#63b8ff" points="541.97,-100.1 552.31,-97.79 542.78,-93.14 541.97,-100.1"/>
</a>
</g>
</g>
<!-- Node8 -->
<g id="Node000008" class="node">
<title>Node8</title>
<g id="a_Node000008"><a xlink:href="logging_8c.html#a2358badbcda33fc9d80ebd6a59d2a2cd" target="_top" xlink:title="Checks if a given function is in the allow&#45;list.">
<polygon fill="white" stroke="#666666" points="650,-75 537,-75 537,-56 650,-56 650,-75"/>
<text text-anchor="middle" x="593.5" y="-63" font-family="Helvetica,sans-Serif" font-size="10.00">is_function_allowed</text>
</a>
</g>
</g>
<!-- Node4&#45;&gt;Node8 -->
<g id="edge7_Node000004_Node000008" class="edge">
<title>Node4&#45;&gt;Node8</title>
<g id="a_edge7_Node000004_Node000008"><a xlink:title=" ">
<path fill="none" stroke="#63b8ff" d="M485.35,-77.41C498.59,-75.93 512.87,-74.35 526.56,-72.83"/>
<polygon fill="#63b8ff" stroke="#63b8ff" points="527.33,-76.26 536.88,-71.68 526.56,-69.31 527.33,-76.26"/>
</a>
</g>
</g>
<!-- Node9 -->
<g id="Node000009" class="node">
<title>Node9</title>
<g id="a_Node000009"><a xlink:href="setup_8c.html#aada6107e9f4626ad3993ee3f83d5dd02" target="_top" xlink:title="Repairs the adjacent normal ghost layer for periodic face&#45;staggered data.">
<polygon fill="white" stroke="#666666" points="666,-37.5 521,-37.5 521,-7.5 666,-7.5 666,-37.5"/>
<text text-anchor="start" x="529" y="-25.5" font-family="Helvetica,sans-Serif" font-size="10.00">RepairPeriodicNormalFace</text>
<text text-anchor="middle" x="593.5" y="-14.5" font-family="Helvetica,sans-Serif" font-size="10.00">Ghosts</text>
</a>
</g>
</g>
<!-- Node4&#45;&gt;Node9 -->
<g id="edge8_Node000004_Node000009" class="edge">
<title>Node4&#45;&gt;Node9</title>
<g id="a_edge8_Node000004_Node000009"><a xlink:title=" ">
<path fill="none" stroke="#63b8ff" d="M452.66,-73.98C470.88,-66.25 497.45,-55.26 521,-46.5 526.06,-44.62 531.35,-42.72 536.66,-40.86"/>
<polygon fill="#63b8ff" stroke="#63b8ff" points="537.89,-44.14 546.19,-37.56 535.6,-37.52 537.89,-44.14"/>
</a>
</g>
</g>
<!-- Node6 -->
<g id="Node000006" class="node">
<title>Node6</title>
<g id="a_Node000006"><a xlink:href="field__catalog_8c.html#af63f334e53a107f8f499473db992d486" target="_top" xlink:title="Returns the immutable catalog descriptor for one typed field identity.">
<polygon fill="white" stroke="#666666" points="809,-149 702,-149 702,-130 809,-130 809,-149"/>
<text text-anchor="middle" x="755.5" y="-137" font-family="Helvetica,sans-Serif" font-size="10.00">FieldGetDescriptor</text>
</a>
</g>
</g>
<!-- Node5&#45;&gt;Node6 -->
<g id="edge5_Node000005_Node000006" class="edge">
<title>Node5&#45;&gt;Node6</title>
<g id="a_edge5_Node000005_Node000006"><a xlink:title=" ">
<path fill="none" stroke="#63b8ff" d="M634.05,-139.5C651.47,-139.5 672.35,-139.5 691.81,-139.5"/>
<polygon fill="#63b8ff" stroke="#63b8ff" points="691.82,-143 701.82,-139.5 691.82,-136 691.82,-143"/>
</a>
</g>
</g>
<!-- Node10&#45;&gt;Node4 -->
<g id="edge10_Node000010_Node000004" class="edge">
<title>Node10&#45;&gt;Node4</title>
<g id="a_edge10_Node000010_Node000004"><a xlink:title=" ">
<path fill="none" stroke="#63b8ff" d="M327.71,-83.5C339.26,-83.5 351.56,-83.5 363.47,-83.5"/>
<polygon fill="#63b8ff" stroke="#63b8ff" points="363.79,-87 373.79,-83.5 363.79,-80 363.79,-87"/>
</a>
</g>
</g>
</g>
</svg>

<g id="navigator" transform="translate(0 0)" fill="#404254">
  <rect fill="#f2f5e9" fill-opacity="0.5" stroke="#606060" stroke-width=".5" x="0" y="0" width="60" height="60"/>
  <use id="zoomplus" xlink:href="#zoomPlus" x="17" y="9" onmousedown="handleZoom(evt,'in')"/>
  <use id="zoomminus" xlink:href="#zoomMin" x="42" y="9" onmousedown="handleZoom(evt,'out')"/>
  <use id="reset" xlink:href="#resetDef" x="30" y="36" onmousedown="handleReset()"/>
   <use id="arrowup" xlink:href="#arrowUp" x="0" y="0" onmousedown="handlePan(0,-1)"/>
  <use id="arrowright" xlink:href="#arrowRight" x="0" y="0" onmousedown="handlePan(1,0)"/>
  <use id="arrowdown" xlink:href="#arrowDown" x="0" y="0" onmousedown="handlePan(0,1)"/>
  <use id="arrowleft" xlink:href="#arrowLeft" x="0" y="0" onmousedown="handlePan(-1,0)"/>
</g>
<svg viewBox="0 0 15 15" width="100%" height="30px" preserveAspectRatio="xMaxYMin meet">
 <g id="arrow_out" transform="scale(0.3 0.3)">
  <a xlink:href="postprocessor_8c_a059ce04ba04e66a5f1ef982fdf375e80_cgraph_org.svg" target="_base">
   <rect id="button" ry="5" rx="5" y="6" x="6" height="38" width="38"
        fill="#f2f5e9" fill-opacity="0.5" stroke="#606060" stroke-width="1.0"/>
   <path id="arrow"
     d="M 11.500037,31.436501 C 11.940474,20.09759 22.043105,11.32322 32.158766,21.979434 L 37.068811,17.246167 C 37.068811,17.246167 37.088388,32 37.088388,32 L 22.160133,31.978069 C 22.160133,31.978069 26.997745,27.140456 26.997745,27.140456 C 18.528582,18.264221 13.291696,25.230495 11.500037,31.436501 z"
     style="fill:#404040;"/>
  </a>
 </g>
</svg>

<style type='text/css'>
<![CDATA[
[data-mouse-over-selected='false'] { opacity: 0.7; }
[data-mouse-over-selected='true']  { opacity: 1.0; }
]]>
</style>
<script type="application/ecmascript"><![CDATA[
document.addEventListener('DOMContentLoaded', (event) => {
  highlightEdges();
  highlightAdjacentNodes();
});
]]></script>
</svg>
