<?xml version="1.0" encoding="UTF-8" standalone="no"?>
<!DOCTYPE svg PUBLIC "-//W3C//DTD SVG 1.1//EN"
 "http://www.w3.org/Graphics/SVG/1.1/DTD/svg11.dtd">
<!-- Generated by graphviz version 2.43.0 (0)
 -->
<!-- Title: PicurvWindowOfferState Pages: 1 -->
<svg width="331pt" height="64pt"
 viewBox="0.00 0.00 331.00 64.00" xmlns="http://www.w3.org/2000/svg" xmlns:xlink="http://www.w3.org/1999/xlink">
<g id="graph0" class="graph" transform="scale(1 1) rotate(0) translate(4 60)">
<title>PicurvWindowOfferState</title>
<!-- Node1 -->
<g id="Node000001" class="node">
<title>Node1</title>
<g id="a_Node000001"><a xlink:title="Implementation of PicurvWindowOfferState().">
<polygon fill="#999999" stroke="#666666" points="135,-37 0,-37 0,-18 135,-18 135,-37"/>
<text text-anchor="middle" x="67.5" y="-25" font-family="Helvetica,sans-Serif" font-size="10.00">PicurvWindowOfferState</text>
</a>
</g>
</g>
<!-- Node2 -->
<g id="Node000002" class="node">
<title>Node2</title>
<g id="a_Node000002"><a xlink:href="statistics__window_8c.html#a5397b44a6781de4594ca0d810fcc78fd" target="_top" xlink:title="Internal helper: advances the time&#45;cadence target past the accepted time.">
<polygon fill="white" stroke="#666666" points="323,-56 171,-56 171,-37 323,-37 323,-56"/>
<text text-anchor="middle" x="247" y="-44" font-family="Helvetica,sans-Serif" font-size="10.00">WindowAdvanceTimeTarget</text>
</a>
</g>
</g>
<!-- Node1&#45;&gt;Node2 -->
<g id="edge1_Node000001_Node000002" class="edge">
<title>Node1&#45;&gt;Node2</title>
<g id="a_edge1_Node000001_Node000002"><a xlink:title=" ">
<path fill="none" stroke="#63b8ff" d="M135.1,-34.63C143.51,-35.53 152.21,-36.46 160.86,-37.39"/>
<polygon fill="#63b8ff" stroke="#63b8ff" points="160.66,-40.89 170.98,-38.47 161.41,-33.92 160.66,-40.89"/>
</a>
</g>
</g>
<!-- Node3 -->
<g id="Node000003" class="node">
<title>Node3</title>
<g id="a_Node000003"><a xlink:href="statistics__window_8c.html#a97032f84060021e3f34c090eb0729667" target="_top" xlink:title="Internal helper: reports whether a state is due under the window&#39;s schedule.">
<polygon fill="white" stroke="#666666" points="301.5,-19 192.5,-19 192.5,0 301.5,0 301.5,-19"/>
<text text-anchor="middle" x="247" y="-7" font-family="Helvetica,sans-Serif" font-size="10.00">WindowStateIsDue</text>
</a>
</g>
</g>
<!-- Node1&#45;&gt;Node3 -->
<g id="edge2_Node000001_Node000003" class="edge">
<title>Node1&#45;&gt;Node3</title>
<g id="a_edge2_Node000001_Node000003"><a xlink:title=" ">
<path fill="none" stroke="#63b8ff" d="M135.1,-20.75C150.45,-19.19 166.74,-17.54 181.97,-15.99"/>
<polygon fill="#63b8ff" stroke="#63b8ff" points="182.73,-19.43 192.32,-14.94 182.02,-12.47 182.73,-19.43"/>
</a>
</g>
</g>
</g>
</svg>
