<?xml version="1.0" encoding="UTF-8" standalone="no"?>
<!DOCTYPE svg PUBLIC "-//W3C//DTD SVG 1.1//EN"
 "http://www.w3.org/Graphics/SVG/1.1/DTD/svg11.dtd">
<!-- Generated by graphviz version 2.43.0 (0)
 -->
<!-- Title: TestComputeNodalAverageScalar Pages: 1 -->
<!--zoomable 651 -->

<svg id="main" version="1.1" xmlns="http://www.w3.org/2000/svg" xmlns:xlink="http://www.w3.org/1999/xlink" xml:space="preserve" onload="init(evt)">
<style type="text/css"><![CDATA[
.node, .edge {opacity: 0.7;}
.node.selected, .edge.selected {opacity: 1;}
.edge:hover path { stroke: red; }
.edge:hover polygon { stroke: red; fill: red; }
]]></style>

<defs>
  <circle id="rim" cx="0" cy="0" r="7"/>
  <circle id="rim2" cx="0" cy="0" r="3.5"/>
  <g id="zoomPlus">
    <use xlink:href="#rim" fill="#404040"><set attributeName="fill" to="#808080" begin="zoomplus.mouseover" end="zoomplus.mouseout"/></use>
    <path d="M-4,0h8M0,-4v8" fill="none" stroke="white" stroke-width="1.5" pointer-events="none"/>
  </g>
  <g id="zoomMin">
    <use xlink:href="#rim" fill="#404040"><set attributeName="fill" to="#808080" begin="zoomminus.mouseover" end="zoomminus.mouseout"/></use>
    <path d="M-4,0h8" fill="none" stroke="white" stroke-width="1.5" pointer-events="none"/>
  </g>
  <g id="arrowUp" transform="translate(30 24)">
    <use xlink:href="#rim"/>
    <path pointer-events="none" fill="none" stroke="white" stroke-width="1.5" d="M0,-3.0v7 M-2.5,-0.5L0,-3.0L2.5,-0.5"/>
  </g>
  <g id="arrowRight" transform="rotate(90) translate(36 -43)">
    <use xlink:href="#rim"/>
    <path pointer-events="none" fill="none" stroke="white" stroke-width="1.5" d="M0,-3.0v7 M-2.5,-0.5L0,-3.0L2.5,-0.5"/>
  </g>
  <g id="arrowDown" transform="rotate(180) translate(-30 -48)">
    <use xlink:href="#rim"/>
    <path pointer-events="none" fill="none" stroke="white" stroke-width="1.5" d="M0,-3.0v7 M-2.5,-0.5L0,-3.0L2.5,-0.5"/>
  </g>
  <g id="arrowLeft" transform="rotate(270) translate(-36 17)">
    <use xlink:href="#rim"/>
    <path pointer-events="none" fill="none" stroke="white" stroke-width="1.5" d="M0,-3.0v7 M-2.5,-0.5L0,-3.0L2.5,-0.5"/>
  </g>
  <g id="resetDef">
    <use xlink:href="#rim2" fill="#404040"><set attributeName="fill" to="#808080" begin="reset.mouseover" end="reset.mouseout"/></use>
  </g>
</defs>
<script type="application/ecmascript">
var viewWidth = 975;
var viewHeight = 651;
var sectionId = 'dynsection-5';
</script>
<script type="application/ecmascript" xlink:href="svg.min.js"/>
<svg id="graph" class="graph">
<g id="viewport">
<title>TestComputeNodalAverageScalar</title>
<!-- Node1 -->
<g id="Node000001" class="node">
<title>Node1</title>
<g id="a_Node000001"><a xlink:title="Tests nodal averaging of scalar cell&#45;centered data.">
<polygon fill="#999999" stroke="#666666" points="179,-351 0,-351 0,-332 179,-332 179,-351"/>
<text text-anchor="middle" x="89.5" y="-339" font-family="Helvetica,sans-Serif" font-size="10.00">TestComputeNodalAverageScalar</text>
</a>
</g>
</g>
<!-- Node2 -->
<g id="Node000002" class="node">
<title>Node2</title>
<g id="a_Node000002"><a xlink:href="postprocessing__kernels_8c.html#ad5b0c0f1721b13944b83a57f2471cd02" target="_top" xlink:title="Interpolates a cell&#45;centered field to nodal locations using local stencil averaging.">
<polygon fill="white" stroke="#666666" points="363.5,-569 234.5,-569 234.5,-550 363.5,-550 363.5,-569"/>
<text text-anchor="middle" x="299" y="-557" font-family="Helvetica,sans-Serif" font-size="10.00">ComputeNodalAverage</text>
</a>
</g>
</g>
<!-- Node1&#45;&gt;Node2 -->
<g id="edge1_Node000001_Node000002" class="edge">
<title>Node1&#45;&gt;Node2</title>
<g id="a_edge1_Node000001_Node000002"><a xlink:title=" ">
<path fill="none" stroke="#63b8ff" d="M99.68,-351.15C131.96,-385.06 240.45,-499.03 281.8,-542.48"/>
<polygon fill="#63b8ff" stroke="#63b8ff" points="279.49,-545.13 288.92,-549.96 284.56,-540.31 279.49,-545.13"/>
</a>
</g>
</g>
<!-- Node10 -->
<g id="Node000010" class="node">
<title>Node10</title>
<g id="a_Node000010"><a xlink:href="test__support_8c.html#a21fc4571ef8b1777e6ee79cabab40c88" target="_top" xlink:title="Asserts that two real values agree within tolerance.">
<polygon fill="white" stroke="#666666" points="360,-370 238,-370 238,-351 360,-351 360,-370"/>
<text text-anchor="middle" x="299" y="-358" font-family="Helvetica,sans-Serif" font-size="10.00">PicurvAssertRealNear</text>
</a>
</g>
</g>
<!-- Node1&#45;&gt;Node10 -->
<g id="edge9_Node000001_Node000010" class="edge">
<title>Node1&#45;&gt;Node10</title>
<g id="a_edge9_Node000001_Node000010"><a xlink:title=" ">
<path fill="none" stroke="#63b8ff" d="M179.1,-349.61C195.37,-351.1 212.14,-352.64 227.77,-354.07"/>
<polygon fill="#63b8ff" stroke="#63b8ff" points="227.59,-357.57 237.86,-354.99 228.23,-350.6 227.59,-357.57"/>
</a>
</g>
</g>
<!-- Node11 -->
<g id="Node000011" class="node">
<title>Node11</title>
<g id="a_Node000011"><a xlink:href="test__support_8c.html#a0cf6b441f404b07c0f35cbe968cfb624" target="_top" xlink:title="Builds minimal SimCtx and UserCtx fixtures for C unit tests.">
<polygon fill="white" stroke="#666666" points="380,-333 218,-333 218,-314 380,-314 380,-333"/>
<text text-anchor="middle" x="299" y="-321" font-family="Helvetica,sans-Serif" font-size="10.00">PicurvCreateMinimalContexts</text>
</a>
</g>
</g>
<!-- Node1&#45;&gt;Node11 -->
<g id="edge10_Node000001_Node000011" class="edge">
<title>Node1&#45;&gt;Node11</title>
<g id="a_edge10_Node000001_Node000011"><a xlink:title=" ">
<path fill="none" stroke="#63b8ff" d="M179.1,-333.81C188.57,-332.99 198.2,-332.16 207.69,-331.33"/>
<polygon fill="#63b8ff" stroke="#63b8ff" points="208.24,-334.8 217.9,-330.45 207.64,-327.83 208.24,-334.8"/>
</a>
</g>
</g>
<!-- Node23 -->
<g id="Node000023" class="node">
<title>Node23</title>
<g id="a_Node000023"><a xlink:href="test__support_8c.html#a2b0d4cb91cbb751680e744afdf24f8c4" target="_top" xlink:title="Destroys minimal SimCtx/UserCtx fixtures and all owned PETSc objects.">
<polygon fill="white" stroke="#666666" points="383,-179 215,-179 215,-160 383,-160 383,-179"/>
<text text-anchor="middle" x="299" y="-167" font-family="Helvetica,sans-Serif" font-size="10.00">PicurvDestroyMinimalContexts</text>
</a>
</g>
</g>
<!-- Node1&#45;&gt;Node23 -->
<g id="edge23_Node000001_Node000023" class="edge">
<title>Node1&#45;&gt;Node23</title>
<g id="a_edge23_Node000001_Node000023"><a xlink:title=" ">
<path fill="none" stroke="#63b8ff" d="M102.25,-331.76C136.42,-303.44 236,-220.89 278.46,-185.7"/>
<polygon fill="#63b8ff" stroke="#63b8ff" points="280.91,-188.21 286.38,-179.13 276.45,-182.82 280.91,-188.21"/>
</a>
</g>
</g>
<!-- Node3 -->
<g id="Node000003" class="node">
<title>Node3</title>
<g id="a_Node000003"><a xlink:href="field__catalog_8c.html#a0ce7c6714d9d153ebfc0d9987a4e0856" target="_top" xlink:title="Resolve a user&#45;facing field name once into its typed identity.">
<polygon fill="white" stroke="#666666" points="551.5,-606 448.5,-606 448.5,-587 551.5,-587 551.5,-606"/>
<text text-anchor="middle" x="500" y="-594" font-family="Helvetica,sans-Serif" font-size="10.00">FieldIdFromName</text>
</a>
</g>
</g>
<!-- Node2&#45;&gt;Node3 -->
<g id="edge2_Node000002_Node000003" class="edge">
<title>Node2&#45;&gt;Node3</title>
<g id="a_edge2_Node000002_Node000003"><a xlink:title=" ">
<path fill="none" stroke="#63b8ff" d="M351.25,-569.03C377.81,-573.97 410.43,-580.03 438.26,-585.21"/>
<polygon fill="#63b8ff" stroke="#63b8ff" points="437.8,-588.68 448.27,-587.07 439.08,-581.8 437.8,-588.68"/>
</a>
</g>
</g>
<!-- Node4 -->
<g id="Node000004" class="node">
<title>Node4</title>
<g id="a_Node000004"><a xlink:href="setup_8c.html#ac3268b7f32258fd24c02cfd44dc5f18d" target="_top" xlink:title="Updates the local vector (including ghost points) from its corresponding global vector.">
<polygon fill="white" stroke="#666666" points="555.5,-569 444.5,-569 444.5,-550 555.5,-550 555.5,-569"/>
<text text-anchor="middle" x="500" y="-557" font-family="Helvetica,sans-Serif" font-size="10.00">UpdateLocalGhosts</text>
</a>
</g>
</g>
<!-- Node2&#45;&gt;Node4 -->
<g id="edge3_Node000002_Node000004" class="edge">
<title>Node2&#45;&gt;Node4</title>
<g id="a_edge3_Node000002_Node000004"><a xlink:title=" ">
<path fill="none" stroke="#63b8ff" d="M363.51,-559.5C386.1,-559.5 411.55,-559.5 434.24,-559.5"/>
<polygon fill="#63b8ff" stroke="#63b8ff" points="434.45,-563 444.45,-559.5 434.45,-556 434.45,-563"/>
</a>
</g>
</g>
<!-- Node5 -->
<g id="Node000005" class="node">
<title>Node5</title>
<g id="a_Node000005"><a xlink:href="field__catalog_8c.html#a8e973bba212aed4167b3f294d220384e" target="_top" xlink:title="Resolve the existing DM and global/local vectors for one field.">
<polygon fill="white" stroke="#666666" points="739,-643 658,-643 658,-624 739,-624 739,-643"/>
<text text-anchor="middle" x="698.5" y="-631" font-family="Helvetica,sans-Serif" font-size="10.00">FieldGetView</text>
</a>
</g>
</g>
<!-- Node4&#45;&gt;Node5 -->
<g id="edge4_Node000004_Node000005" class="edge">
<title>Node4&#45;&gt;Node5</title>
<g id="a_edge4_Node000004_Node000005"><a xlink:title=" ">
<path fill="none" stroke="#63b8ff" d="M555.51,-568.05C564.36,-570.66 573.18,-574.06 581,-578.5 600.95,-589.82 596.97,-604.31 617,-615.5 626.38,-620.74 637.17,-624.46 647.75,-627.09"/>
<polygon fill="#63b8ff" stroke="#63b8ff" points="647.25,-630.56 657.77,-629.3 648.76,-623.73 647.25,-630.56"/>
</a>
</g>
</g>
<!-- Node7 -->
<g id="Node000007" class="node">
<title>Node7</title>
<g id="a_Node000007"><a xlink:href="logging_8c.html#a9585f583c260f40a73f2490914edc689" target="_top" xlink:title="Retrieves the current logging level from the environment variable LOG_LEVEL.">
<polygon fill="white" stroke="#666666" points="739.5,-606 657.5,-606 657.5,-587 739.5,-587 739.5,-606"/>
<text text-anchor="middle" x="698.5" y="-594" font-family="Helvetica,sans-Serif" font-size="10.00">get_log_level</text>
</a>
</g>
</g>
<!-- Node4&#45;&gt;Node7 -->
<g id="edge6_Node000004_Node000007" class="edge">
<title>Node4&#45;&gt;Node7</title>
<g id="a_edge6_Node000004_Node000007"><a xlink:title=" ">
<path fill="none" stroke="#63b8ff" d="M551.6,-569.03C581,-574.56 617.91,-581.51 647.24,-587.04"/>
<polygon fill="#63b8ff" stroke="#63b8ff" points="646.81,-590.52 657.28,-588.93 648.1,-583.64 646.81,-590.52"/>
</a>
</g>
</g>
<!-- Node8 -->
<g id="Node000008" class="node">
<title>Node8</title>
<g id="a_Node000008"><a xlink:href="logging_8c.html#a2358badbcda33fc9d80ebd6a59d2a2cd" target="_top" xlink:title="Checks if a given function is in the allow&#45;list.">
<polygon fill="white" stroke="#666666" points="755,-569 642,-569 642,-550 755,-550 755,-569"/>
<text text-anchor="middle" x="698.5" y="-557" font-family="Helvetica,sans-Serif" font-size="10.00">is_function_allowed</text>
</a>
</g>
</g>
<!-- Node4&#45;&gt;Node8 -->
<g id="edge7_Node000004_Node000008" class="edge">
<title>Node4&#45;&gt;Node8</title>
<g id="a_edge7_Node000004_Node000008"><a xlink:title=" ">
<path fill="none" stroke="#63b8ff" d="M555.74,-559.5C579.29,-559.5 607.03,-559.5 631.69,-559.5"/>
<polygon fill="#63b8ff" stroke="#63b8ff" points="631.69,-563 641.69,-559.5 631.69,-556 631.69,-563"/>
</a>
</g>
</g>
<!-- Node9 -->
<g id="Node000009" class="node">
<title>Node9</title>
<g id="a_Node000009"><a xlink:href="setup_8c.html#aada6107e9f4626ad3993ee3f83d5dd02" target="_top" xlink:title="Repairs the adjacent normal ghost layer for periodic face&#45;staggered data.">
<polygon fill="white" stroke="#666666" points="771,-531.5 626,-531.5 626,-501.5 771,-501.5 771,-531.5"/>
<text text-anchor="start" x="634" y="-519.5" font-family="Helvetica,sans-Serif" font-size="10.00">RepairPeriodicNormalFace</text>
<text text-anchor="middle" x="698.5" y="-508.5" font-family="Helvetica,sans-Serif" font-size="10.00">Ghosts</text>
</a>
</g>
</g>
<!-- Node4&#45;&gt;Node9 -->
<g id="edge8_Node000004_Node000009" class="edge">
<title>Node4&#45;&gt;Node9</title>
<g id="a_edge8_Node000004_Node000009"><a xlink:title=" ">
<path fill="none" stroke="#63b8ff" d="M544.61,-549.96C566.47,-545.17 593.62,-539.23 618.95,-533.69"/>
<polygon fill="#63b8ff" stroke="#63b8ff" points="619.9,-537.06 628.92,-531.51 618.41,-530.22 619.9,-537.06"/>
</a>
</g>
</g>
<!-- Node6 -->
<g id="Node000006" class="node">
<title>Node6</title>
<g id="a_Node000006"><a xlink:href="field__catalog_8c.html#af63f334e53a107f8f499473db992d486" target="_top" xlink:title="Returns the immutable catalog descriptor for one typed field identity.">
<polygon fill="white" stroke="#666666" points="945,-643 838,-643 838,-624 945,-624 945,-643"/>
<text text-anchor="middle" x="891.5" y="-631" font-family="Helvetica,sans-Serif" font-size="10.00">FieldGetDescriptor</text>
</a>
</g>
</g>
<!-- Node5&#45;&gt;Node6 -->
<g id="edge5_Node000005_Node000006" class="edge">
<title>Node5&#45;&gt;Node6</title>
<g id="a_edge5_Node000005_Node000006"><a xlink:title=" ">
<path fill="none" stroke="#63b8ff" d="M739.08,-633.5C764.68,-633.5 798.58,-633.5 827.8,-633.5"/>
<polygon fill="#63b8ff" stroke="#63b8ff" points="827.93,-637 837.93,-633.5 827.93,-630 827.93,-637"/>
</a>
</g>
</g>
<!-- Node12 -->
<g id="Node000012" class="node">
<title>Node12</title>
<g id="a_Node000012"><a xlink:href="test__support_8c.html#a30acb18b44f81f5e0eda73488feb2a6e" target="_top" xlink:title="Builds minimal SimCtx and UserCtx fixtures for C unit tests with configurable periodicity.">
<polygon fill="white" stroke="#666666" points="581,-338.5 419,-338.5 419,-308.5 581,-308.5 581,-338.5"/>
<text text-anchor="start" x="427" y="-326.5" font-family="Helvetica,sans-Serif" font-size="10.00">PicurvCreateMinimalContexts</text>
<text text-anchor="middle" x="500" y="-315.5" font-family="Helvetica,sans-Serif" font-size="10.00">WithPeriodicity</text>
</a>
</g>
</g>
<!-- Node11&#45;&gt;Node12 -->
<g id="edge11_Node000011_Node000012" class="edge">
<title>Node11&#45;&gt;Node12</title>
<g id="a_edge11_Node000011_Node000012"><a xlink:title=" ">
<path fill="none" stroke="#63b8ff" d="M380.08,-323.5C389.44,-323.5 399.04,-323.5 408.52,-323.5"/>
<polygon fill="#63b8ff" stroke="#63b8ff" points="408.76,-327 418.76,-323.5 408.76,-320 408.76,-327"/>
</a>
</g>
</g>
<!-- Node13 -->
<g id="Node000013" class="node">
<title>Node13</title>
<g id="a_Node000013"><a xlink:href="grid_8c.html#a325b9d5da4b9b2c79d278fb848215632" target="_top" xlink:title="Broadcasts the bounding box information collected on rank 0 to all other ranks.">
<polygon fill="white" stroke="#666666" points="775,-483 622,-483 622,-464 775,-464 775,-483"/>
<text text-anchor="middle" x="698.5" y="-471" font-family="Helvetica,sans-Serif" font-size="10.00">BroadcastAllBoundingBoxes</text>
</a>
</g>
</g>
<!-- Node12&#45;&gt;Node13 -->
<g id="edge12_Node000012_Node000013" class="edge">
<title>Node12&#45;&gt;Node13</title>
<g id="a_edge12_Node000012_Node000013"><a xlink:title=" ">
<path fill="none" stroke="#63b8ff" d="M510.88,-338.76C528.82,-365.24 569.33,-419.73 617,-449.5 624.2,-454 632.29,-457.69 640.49,-460.71"/>
<polygon fill="#63b8ff" stroke="#63b8ff" points="639.53,-464.08 650.12,-463.96 641.77,-457.45 639.53,-464.08"/>
</a>
</g>
</g>
<!-- Node14 -->
<g id="Node000014" class="node">
<title>Node14</title>
<g id="a_Node000014"><a xlink:href="grid_8c.html#ae0c39bc7c78a15bedf9f1415ab1dded4" target="_top" xlink:title="Computes the local bounding box of the grid on the current process.">
<polygon fill="white" stroke="#666666" points="967,-352 816,-352 816,-333 967,-333 967,-352"/>
<text text-anchor="middle" x="891.5" y="-340" font-family="Helvetica,sans-Serif" font-size="10.00">ComputeLocalBoundingBox</text>
</a>
</g>
</g>
<!-- Node12&#45;&gt;Node14 -->
<g id="edge13_Node000012_Node000014" class="edge">
<title>Node12&#45;&gt;Node14</title>
<g id="a_edge13_Node000012_Node000014"><a xlink:title=" ">
<path fill="none" stroke="#63b8ff" d="M513.69,-338.78C533.19,-360.94 572.92,-401.01 617,-416.5 685.35,-440.52 710.69,-437.57 780,-416.5 816.89,-405.29 852.67,-377.22 873.09,-359.05"/>
<polygon fill="#63b8ff" stroke="#63b8ff" points="875.6,-361.5 880.62,-352.18 870.88,-356.33 875.6,-361.5"/>
</a>
</g>
</g>
<!-- Node15 -->
<g id="Node000015" class="node">
<title>Node15</title>
<g id="a_Node000015"><a xlink:href="grid_8c.html#ade092a17f630107dd8deb17d17bd5a6b" target="_top" xlink:title="Creates a DMDA sharing a block&#39;s decomposition at a different degree of freedom.">
<polygon fill="white" stroke="#666666" points="773,-407 624,-407 624,-388 773,-388 773,-407"/>
<text text-anchor="middle" x="698.5" y="-395" font-family="Helvetica,sans-Serif" font-size="10.00">CreateCompatibleBlockDM</text>
</a>
</g>
</g>
<!-- Node12&#45;&gt;Node15 -->
<g id="edge14_Node000012_Node000015" class="edge">
<title>Node12&#45;&gt;Node15</title>
<g id="a_edge14_Node000012_Node000015"><a xlink:title=" ">
<path fill="none" stroke="#63b8ff" d="M527.9,-338.68C550.94,-351.14 585.32,-368.48 617,-379.5 623.27,-381.68 629.91,-383.66 636.58,-385.45"/>
<polygon fill="#63b8ff" stroke="#63b8ff" points="635.78,-388.85 646.33,-387.92 637.5,-382.07 635.78,-388.85"/>
</a>
</g>
</g>
<!-- Node16 -->
<g id="Node000016" class="node">
<title>Node16</title>
<g id="a_Node000016"><a xlink:href="test__support_8c.html#a845e376da4cb213d54b0f72235252a21" target="_top" xlink:title="Duplicates and zeroes a vector.">
<polygon fill="white" stroke="#666666" points="763.5,-370 633.5,-370 633.5,-351 763.5,-351 763.5,-370"/>
<text text-anchor="middle" x="698.5" y="-358" font-family="Helvetica,sans-Serif" font-size="10.00">CreateZeroedDuplicate</text>
</a>
</g>
</g>
<!-- Node12&#45;&gt;Node16 -->
<g id="edge15_Node000012_Node000016" class="edge">
<title>Node12&#45;&gt;Node16</title>
<g id="a_edge15_Node000012_Node000016"><a xlink:title=" ">
<path fill="none" stroke="#63b8ff" d="M580.92,-338.55C599.58,-342.06 619.14,-345.75 636.8,-349.07"/>
<polygon fill="#63b8ff" stroke="#63b8ff" points="636.49,-352.57 646.96,-350.98 637.78,-345.69 636.49,-352.57"/>
</a>
</g>
</g>
<!-- Node17 -->
<g id="Node000017" class="node">
<title>Node17</title>
<g id="a_Node000017"><a xlink:href="test__support_8c.html#ae0f13c5bfc5faa05903081af1c8dc7c7" target="_top" xlink:title="Allocates and zeroes a global vector from the provided DM.">
<polygon fill="white" stroke="#666666" points="771.5,-333 625.5,-333 625.5,-314 771.5,-314 771.5,-333"/>
<text text-anchor="middle" x="698.5" y="-321" font-family="Helvetica,sans-Serif" font-size="10.00">CreateZeroedGlobalVector</text>
</a>
</g>
</g>
<!-- Node12&#45;&gt;Node17 -->
<g id="edge16_Node000012_Node000017" class="edge">
<title>Node12&#45;&gt;Node17</title>
<g id="a_edge16_Node000012_Node000017"><a xlink:title=" ">
<path fill="none" stroke="#63b8ff" d="M581.21,-323.5C592.42,-323.5 603.96,-323.5 615.21,-323.5"/>
<polygon fill="#63b8ff" stroke="#63b8ff" points="615.44,-327 625.44,-323.5 615.44,-320 615.44,-327"/>
</a>
</g>
</g>
<!-- Node18 -->
<g id="Node000018" class="node">
<title>Node18</title>
<g id="a_Node000018"><a xlink:href="test__support_8c.html#a4bba41417f947e3ccffce86f48d8322f" target="_top" xlink:title="Allocates and zeroes a local vector from the provided DM.">
<polygon fill="white" stroke="#666666" points="768.5,-296 628.5,-296 628.5,-277 768.5,-277 768.5,-296"/>
<text text-anchor="middle" x="698.5" y="-284" font-family="Helvetica,sans-Serif" font-size="10.00">CreateZeroedLocalVector</text>
</a>
</g>
</g>
<!-- Node12&#45;&gt;Node18 -->
<g id="edge17_Node000012_Node000018" class="edge">
<title>Node12&#45;&gt;Node18</title>
<g id="a_edge17_Node000012_Node000018"><a xlink:title=" ">
<path fill="none" stroke="#63b8ff" d="M580.92,-308.45C599.58,-304.94 619.14,-301.25 636.8,-297.93"/>
<polygon fill="#63b8ff" stroke="#63b8ff" points="637.78,-301.31 646.96,-296.02 636.49,-294.43 637.78,-301.31"/>
</a>
</g>
</g>
<!-- Node19 -->
<g id="Node000019" class="node">
<title>Node19</title>
<g id="a_Node000019"><a xlink:href="grid_8c.html#afac52c252de784d5bcd7fe7a2e642982" target="_top" xlink:title="Gathers local bounding boxes from all MPI processes to rank 0.">
<polygon fill="white" stroke="#666666" points="767,-259 630,-259 630,-240 767,-240 767,-259"/>
<text text-anchor="middle" x="698.5" y="-247" font-family="Helvetica,sans-Serif" font-size="10.00">GatherAllBoundingBoxes</text>
</a>
</g>
</g>
<!-- Node12&#45;&gt;Node19 -->
<g id="edge18_Node000012_Node000019" class="edge">
<title>Node12&#45;&gt;Node19</title>
<g id="a_edge18_Node000012_Node000019"><a xlink:title=" ">
<path fill="none" stroke="#63b8ff" d="M561.11,-308.5C567.99,-305.9 574.77,-302.91 581,-299.5 599.52,-289.36 598.19,-278.09 617,-268.5 621.6,-266.16 626.5,-264.1 631.51,-262.28"/>
<polygon fill="#63b8ff" stroke="#63b8ff" points="632.85,-265.53 641.27,-259.1 630.67,-258.88 632.85,-265.53"/>
</a>
</g>
</g>
<!-- Node20 -->
<g id="Node000020" class="node">
<title>Node20</title>
<g id="a_Node000020"><a xlink:href="setup_8c.html#aeb1e3c8f7c9914e870aea56bec4bfa0e" target="_top" xlink:title="Installs the shipped defaults for every LES closure parameter.">
<polygon fill="white" stroke="#666666" points="759.5,-222 637.5,-222 637.5,-203 759.5,-203 759.5,-222"/>
<text text-anchor="middle" x="698.5" y="-210" font-family="Helvetica,sans-Serif" font-size="10.00">LESConfigSetDefaults</text>
</a>
</g>
</g>
<!-- Node12&#45;&gt;Node20 -->
<g id="edge20_Node000012_Node000020" class="edge">
<title>Node12&#45;&gt;Node20</title>
<g id="a_edge20_Node000012_Node000020"><a xlink:title=" ">
<path fill="none" stroke="#63b8ff" d="M567.37,-308.34C572.24,-305.83 576.85,-302.91 581,-299.5 607.42,-277.79 589.94,-252.41 617,-231.5 620.39,-228.88 624.08,-226.62 627.95,-224.66"/>
<polygon fill="#63b8ff" stroke="#63b8ff" points="629.5,-227.8 637.28,-220.62 626.72,-221.38 629.5,-227.8"/>
</a>
</g>
</g>
<!-- Node21 -->
<g id="Node000021" class="node">
<title>Node21</title>
<g id="a_Node000021"><a xlink:href="test__support_8c.html#ae98520a4a6fd84fabdbbd460115a7b25" target="_top" xlink:title="Populates identity metric vectors on the minimal grid fixture.">
<polygon fill="white" stroke="#666666" points="780,-185 617,-185 617,-166 780,-166 780,-185"/>
<text text-anchor="middle" x="698.5" y="-173" font-family="Helvetica,sans-Serif" font-size="10.00">PicurvPopulateIdentityMetrics</text>
</a>
</g>
</g>
<!-- Node12&#45;&gt;Node21 -->
<g id="edge21_Node000012_Node000021" class="edge">
<title>Node12&#45;&gt;Node21</title>
<g id="a_edge21_Node000012_Node000021"><a xlink:title=" ">
<path fill="none" stroke="#63b8ff" d="M569.13,-308.37C573.43,-305.85 577.45,-302.92 581,-299.5 616.55,-265.3 580.44,-227.62 617,-194.5 618.73,-192.93 620.56,-191.49 622.48,-190.16"/>
<polygon fill="#63b8ff" stroke="#63b8ff" points="624.47,-193.05 631.37,-185.02 620.96,-186.99 624.47,-193.05"/>
</a>
</g>
</g>
<!-- Node22 -->
<g id="Node000022" class="node">
<title>Node22</title>
<g id="a_Node000022"><a xlink:href="test__support_8c.html#a8631242d611d0a255915a5835a673c71" target="_top" xlink:title="Populates cell center coordinates for a uniform grid on [0,1]^3.">
<polygon fill="white" stroke="#666666" points="772.5,-147.5 624.5,-147.5 624.5,-117.5 772.5,-117.5 772.5,-147.5"/>
<text text-anchor="start" x="632.5" y="-135.5" font-family="Helvetica,sans-Serif" font-size="10.00">PicurvPopulateUniformCell</text>
<text text-anchor="middle" x="698.5" y="-124.5" font-family="Helvetica,sans-Serif" font-size="10.00">Centers</text>
</a>
</g>
</g>
<!-- Node12&#45;&gt;Node22 -->
<g id="edge22_Node000012_Node000022" class="edge">
<title>Node12&#45;&gt;Node22</title>
<g id="a_edge22_Node000012_Node000022"><a xlink:title=" ">
<path fill="none" stroke="#63b8ff" d="M569.82,-308.46C573.9,-305.92 577.69,-302.96 581,-299.5 626.03,-252.48 572.19,-204.74 617,-157.5 618.25,-156.19 619.56,-154.94 620.93,-153.76"/>
<polygon fill="#63b8ff" stroke="#63b8ff" points="623.29,-156.37 629.36,-147.69 619.2,-150.69 623.29,-156.37"/>
</a>
</g>
</g>
<!-- Node19&#45;&gt;Node14 -->
<g id="edge19_Node000019_Node000014" class="edge">
<title>Node19&#45;&gt;Node14</title>
<g id="a_edge19_Node000019_Node000014"><a xlink:title=" ">
<path fill="none" stroke="#63b8ff" d="M752.35,-259.11C761.75,-261.62 771.31,-264.71 780,-268.5 814.6,-283.58 850.07,-309.57 871.19,-326.4"/>
<polygon fill="#63b8ff" stroke="#63b8ff" points="869.09,-329.2 879.06,-332.78 873.5,-323.76 869.09,-329.2"/>
</a>
</g>
</g>
<!-- Node24 -->
<g id="Node000024" class="node">
<title>Node24</title>
<g id="a_Node000024"><a xlink:href="test__support_8c.html#a2845986ec10e9d9a82f93be4f20a7a75" target="_top" xlink:title="Destroys a PETSc DM only when the handle is non&#45;null.">
<polygon fill="white" stroke="#666666" points="547,-290 453,-290 453,-271 547,-271 547,-290"/>
<text text-anchor="middle" x="500" y="-278" font-family="Helvetica,sans-Serif" font-size="10.00">DestroyDMIfSet</text>
</a>
</g>
</g>
<!-- Node23&#45;&gt;Node24 -->
<g id="edge24_Node000023_Node000024" class="edge">
<title>Node23&#45;&gt;Node24</title>
<g id="a_edge24_Node000023_Node000024"><a xlink:title=" ">
<path fill="none" stroke="#63b8ff" d="M309.18,-179.1C327.93,-198.11 372.79,-240.61 419,-262.5 426.58,-266.09 434.91,-268.98 443.25,-271.31"/>
<polygon fill="#63b8ff" stroke="#63b8ff" points="442.43,-274.71 452.99,-273.78 444.16,-267.93 442.43,-274.71"/>
</a>
</g>
</g>
<!-- Node25 -->
<g id="Node000025" class="node">
<title>Node25</title>
<g id="a_Node000025"><a xlink:href="test__support_8c.html#a0a842ce3be2380f94914c299159f5b77" target="_top" xlink:title="Destroys a PETSc KSP only when the handle is non&#45;null.">
<polygon fill="white" stroke="#666666" points="548,-253 452,-253 452,-234 548,-234 548,-253"/>
<text text-anchor="middle" x="500" y="-241" font-family="Helvetica,sans-Serif" font-size="10.00">DestroyKSPIfSet</text>
</a>
</g>
</g>
<!-- Node23&#45;&gt;Node25 -->
<g id="edge25_Node000023_Node000025" class="edge">
<title>Node23&#45;&gt;Node25</title>
<g id="a_edge25_Node000023_Node000025"><a xlink:title=" ">
<path fill="none" stroke="#63b8ff" d="M317.24,-179.09C339.95,-191.37 381.42,-212.6 419,-225.5 426.38,-228.03 434.28,-230.31 442.12,-232.32"/>
<polygon fill="#63b8ff" stroke="#63b8ff" points="441.44,-235.76 451.99,-234.72 443.1,-228.95 441.44,-235.76"/>
</a>
</g>
</g>
<!-- Node26 -->
<g id="Node000026" class="node">
<title>Node26</title>
<g id="a_Node000026"><a xlink:href="test__support_8c.html#af4872f334b38f726deacac58484bb41c" target="_top" xlink:title="Destroys a PETSc matrix only when the handle is non&#45;null.">
<polygon fill="white" stroke="#666666" points="548,-216 452,-216 452,-197 548,-197 548,-216"/>
<text text-anchor="middle" x="500" y="-204" font-family="Helvetica,sans-Serif" font-size="10.00">DestroyMatIfSet</text>
</a>
</g>
</g>
<!-- Node23&#45;&gt;Node26 -->
<g id="edge26_Node000023_Node000026" class="edge">
<title>Node23&#45;&gt;Node26</title>
<g id="a_edge26_Node000023_Node000026"><a xlink:title=" ">
<path fill="none" stroke="#63b8ff" d="M351.25,-179.03C378.96,-184.18 413.26,-190.56 441.83,-195.87"/>
<polygon fill="#63b8ff" stroke="#63b8ff" points="441.21,-199.31 451.68,-197.7 442.49,-192.43 441.21,-199.31"/>
</a>
</g>
</g>
<!-- Node27 -->
<g id="Node000027" class="node">
<title>Node27</title>
<g id="a_Node000027"><a xlink:href="test__support_8c.html#a48255a1183af2223ff32d21dd00fbfb7" target="_top" xlink:title="Destroys a PETSc nullspace only when the handle is non&#45;null.">
<polygon fill="white" stroke="#666666" points="563,-179 437,-179 437,-160 563,-160 563,-179"/>
<text text-anchor="middle" x="500" y="-167" font-family="Helvetica,sans-Serif" font-size="10.00">DestroyNullSpaceIfSet</text>
</a>
</g>
</g>
<!-- Node23&#45;&gt;Node27 -->
<g id="edge27_Node000023_Node000027" class="edge">
<title>Node23&#45;&gt;Node27</title>
<g id="a_edge27_Node000023_Node000027"><a xlink:title=" ">
<path fill="none" stroke="#63b8ff" d="M383.24,-169.5C397.72,-169.5 412.68,-169.5 426.84,-169.5"/>
<polygon fill="#63b8ff" stroke="#63b8ff" points="426.99,-173 436.99,-169.5 426.99,-166 426.99,-173"/>
</a>
</g>
</g>
<!-- Node28 -->
<g id="Node000028" class="node">
<title>Node28</title>
<g id="a_Node000028"><a xlink:href="test__support_8c.html#a5b1f353936498bf98aaae8662a85138b" target="_top" xlink:title="Destroys a PETSc random generator only when the handle is non&#45;null.">
<polygon fill="white" stroke="#666666" points="559,-142 441,-142 441,-123 559,-123 559,-142"/>
<text text-anchor="middle" x="500" y="-130" font-family="Helvetica,sans-Serif" font-size="10.00">DestroyRandomIfSet</text>
</a>
</g>
</g>
<!-- Node23&#45;&gt;Node28 -->
<g id="edge28_Node000023_Node000028" class="edge">
<title>Node23&#45;&gt;Node28</title>
<g id="a_edge28_Node000023_Node000028"><a xlink:title=" ">
<path fill="none" stroke="#63b8ff" d="M351.25,-159.97C377.61,-155.07 409.93,-149.06 437.61,-143.91"/>
<polygon fill="#63b8ff" stroke="#63b8ff" points="438.39,-147.33 447.58,-142.06 437.11,-140.45 438.39,-147.33"/>
</a>
</g>
</g>
<!-- Node29 -->
<g id="Node000029" class="node">
<title>Node29</title>
<g id="a_Node000029"><a xlink:href="setup_8c.html#a86647d5a101d586fccd13b2078de5c82" target="_top" xlink:title="Frees any runtime storage allocated for solution&#45;convergence logging.">
<polygon fill="white" stroke="#666666" points="579,-104.5 421,-104.5 421,-74.5 579,-74.5 579,-104.5"/>
<text text-anchor="start" x="429" y="-92.5" font-family="Helvetica,sans-Serif" font-size="10.00">DestroySolutionConvergence</text>
<text text-anchor="middle" x="500" y="-81.5" font-family="Helvetica,sans-Serif" font-size="10.00">State</text>
</a>
</g>
</g>
<!-- Node23&#45;&gt;Node29 -->
<g id="edge29_Node000023_Node000029" class="edge">
<title>Node23&#45;&gt;Node29</title>
<g id="a_edge29_Node000023_Node000029"><a xlink:title=" ">
<path fill="none" stroke="#63b8ff" d="M318.64,-159.97C341.79,-148.34 382.69,-128.5 419,-114.5 424.97,-112.2 431.25,-109.95 437.55,-107.81"/>
<polygon fill="#63b8ff" stroke="#63b8ff" points="439.06,-110.99 447.45,-104.53 436.85,-104.35 439.06,-110.99"/>
</a>
</g>
</g>
<!-- Node30 -->
<g id="Node000030" class="node">
<title>Node30</title>
<g id="a_Node000030"><a xlink:href="test__support_8c.html#a8622a6649f49da80c16160d3335402f0" target="_top" xlink:title="Destroys a PETSc vector only when the handle is non&#45;null.">
<polygon fill="white" stroke="#666666" points="547.5,-56 452.5,-56 452.5,-37 547.5,-37 547.5,-56"/>
<text text-anchor="middle" x="500" y="-44" font-family="Helvetica,sans-Serif" font-size="10.00">DestroyVecIfSet</text>
</a>
</g>
</g>
<!-- Node23&#45;&gt;Node30 -->
<g id="edge30_Node000023_Node000030" class="edge">
<title>Node23&#45;&gt;Node30</title>
<g id="a_edge30_Node000023_Node000030"><a xlink:title=" ">
<path fill="none" stroke="#63b8ff" d="M308.12,-159.74C325.93,-138.99 370.71,-90.38 419,-65.5 426.31,-61.74 434.38,-58.7 442.49,-56.26"/>
<polygon fill="#63b8ff" stroke="#63b8ff" points="443.64,-59.58 452.37,-53.57 441.8,-52.82 443.64,-59.58"/>
</a>
</g>
</g>
<!-- Node31 -->
<g id="Node000031" class="node">
<title>Node31</title>
<g id="a_Node000031"><a xlink:href="io_8c.html#acee53553fb7d51eb948f1d4030518860" target="_top" xlink:title="Frees an entire linked list of boundary&#45;condition parameters.">
<polygon fill="white" stroke="#666666" points="552,-19 448,-19 448,0 552,0 552,-19"/>
<text text-anchor="middle" x="500" y="-7" font-family="Helvetica,sans-Serif" font-size="10.00">FreeBC_ParamList</text>
</a>
</g>
</g>
<!-- Node23&#45;&gt;Node31 -->
<g id="edge31_Node000023_Node000031" class="edge">
<title>Node23&#45;&gt;Node31</title>
<g id="a_edge31_Node000023_Node000031"><a xlink:title=" ">
<path fill="none" stroke="#63b8ff" d="M305.16,-159.69C319.43,-133.61 362.14,-62.15 419,-27.5 424.88,-23.92 431.4,-21.04 438.09,-18.74"/>
<polygon fill="#63b8ff" stroke="#63b8ff" points="439.42,-22 447.99,-15.76 437.41,-15.3 439.42,-22"/>
</a>
</g>
</g>
</g>
</svg>

<g id="navigator" transform="translate(0 0)" fill="#404254">
  <rect fill="#f2f5e9" fill-opacity="0.5" stroke="#606060" stroke-width=".5" x="0" y="0" width="60" height="60"/>
  <use id="zoomplus" xlink:href="#zoomPlus" x="17" y="9" onmousedown="handleZoom(evt,'in')"/>
  <use id="zoomminus" xlink:href="#zoomMin" x="42" y="9" onmousedown="handleZoom(evt,'out')"/>
  <use id="reset" xlink:href="#resetDef" x="30" y="36" onmousedown="handleReset()"/>
   <use id="arrowup" xlink:href="#arrowUp" x="0" y="0" onmousedown="handlePan(0,-1)"/>
  <use id="arrowright" xlink:href="#arrowRight" x="0" y="0" onmousedown="handlePan(1,0)"/>
  <use id="arrowdown" xlink:href="#arrowDown" x="0" y="0" onmousedown="handlePan(0,1)"/>
  <use id="arrowleft" xlink:href="#arrowLeft" x="0" y="0" onmousedown="handlePan(-1,0)"/>
</g>
<svg viewBox="0 0 15 15" width="100%" height="30px" preserveAspectRatio="xMaxYMin meet">
 <g id="arrow_out" transform="scale(0.3 0.3)">
  <a xlink:href="test__postprocessing_8c_ae77df0017ba7f7b9ca586fb5aa2531c4_cgraph_org.svg" target="_base">
   <rect id="button" ry="5" rx="5" y="6" x="6" height="38" width="38"
        fill="#f2f5e9" fill-opacity="0.5" stroke="#606060" stroke-width="1.0"/>
   <path id="arrow"
     d="M 11.500037,31.436501 C 11.940474,20.09759 22.043105,11.32322 32.158766,21.979434 L 37.068811,17.246167 C 37.068811,17.246167 37.088388,32 37.088388,32 L 22.160133,31.978069 C 22.160133,31.978069 26.997745,27.140456 26.997745,27.140456 C 18.528582,18.264221 13.291696,25.230495 11.500037,31.436501 z"
     style="fill:#404040;"/>
  </a>
 </g>
</svg>

<style type='text/css'>
<![CDATA[
[data-mouse-over-selected='false'] { opacity: 0.7; }
[data-mouse-over-selected='true']  { opacity: 1.0; }
]]>
</style>
<script type="application/ecmascript"><![CDATA[
document.addEventListener('DOMContentLoaded', (event) => {
  highlightEdges();
  highlightAdjacentNodes();
});
]]></script>
</svg>
