<?xml version="1.0" encoding="UTF-8" standalone="no"?>
<!DOCTYPE svg PUBLIC "-//W3C//DTD SVG 1.1//EN"
 "http://www.w3.org/Graphics/SVG/1.1/DTD/svg11.dtd">
<!-- Generated by graphviz version 2.43.0 (0)
 -->
<!-- Title: TestLoggingFileParsingAndFormattingHelpers Pages: 1 -->
<svg width="430pt" height="360pt"
 viewBox="0.00 0.00 430.00 360.00" xmlns="http://www.w3.org/2000/svg" xmlns:xlink="http://www.w3.org/1999/xlink">
<g id="graph0" class="graph" transform="scale(1 1) rotate(0) translate(4 356)">
<title>TestLoggingFileParsingAndFormattingHelpers</title>
<!-- Node1 -->
<g id="Node000001" class="node">
<title>Node1</title>
<g id="a_Node000001"><a xlink:title="Tests logging&#45;side file parsing, helper formatting, and progress utilities.">
<polygon fill="#999999" stroke="#666666" points="146,-190.5 0,-190.5 0,-160.5 146,-160.5 146,-190.5"/>
<text text-anchor="start" x="8" y="-178.5" font-family="Helvetica,sans-Serif" font-size="10.00">TestLoggingFileParsingAnd</text>
<text text-anchor="middle" x="73" y="-167.5" font-family="Helvetica,sans-Serif" font-size="10.00">FormattingHelpers</text>
</a>
</g>
</g>
<!-- Node2 -->
<g id="Node000002" class="node">
<title>Node2</title>
<g id="a_Node000002"><a xlink:href="logging_8c.html#a26f628c9bae473d94674a1a97641b474" target="_top" xlink:title="Destroys the DualMonitorCtx.">
<polygon fill="white" stroke="#666666" points="323,-352 208,-352 208,-333 323,-333 323,-352"/>
<text text-anchor="middle" x="265.5" y="-340" font-family="Helvetica,sans-Serif" font-size="10.00">DualMonitorDestroy</text>
</a>
</g>
</g>
<!-- Node1&#45;&gt;Node2 -->
<g id="edge1_Node000001_Node000002" class="edge">
<title>Node1&#45;&gt;Node2</title>
<g id="a_edge1_Node000001_Node000002"><a xlink:title=" ">
<path fill="none" stroke="#63b8ff" d="M80.38,-190.57C94.13,-221.09 129.59,-290.22 182,-324.5 186.95,-327.74 192.39,-330.4 198.05,-332.59"/>
<polygon fill="#63b8ff" stroke="#63b8ff" points="197.12,-335.97 207.71,-335.85 199.35,-329.34 197.12,-335.97"/>
</a>
</g>
</g>
<!-- Node3 -->
<g id="Node000003" class="node">
<title>Node3</title>
<g id="a_Node000003"><a xlink:href="logging_8c.html#a4a8e656885dc6a9425a7e8819b64446a" target="_top" xlink:title="Free an array previously returned by LoadAllowedFunctionsFromFile().">
<polygon fill="white" stroke="#666666" points="327,-315 204,-315 204,-296 327,-296 327,-315"/>
<text text-anchor="middle" x="265.5" y="-303" font-family="Helvetica,sans-Serif" font-size="10.00">FreeAllowedFunctions</text>
</a>
</g>
</g>
<!-- Node1&#45;&gt;Node3 -->
<g id="edge2_Node000001_Node000003" class="edge">
<title>Node1&#45;&gt;Node3</title>
<g id="a_edge2_Node000001_Node000003"><a xlink:title=" ">
<path fill="none" stroke="#63b8ff" d="M83.97,-190.55C101,-214.98 138.13,-263.01 182,-287.5 185.92,-289.69 190.09,-291.61 194.38,-293.3"/>
<polygon fill="#63b8ff" stroke="#63b8ff" points="193.35,-296.65 203.94,-296.64 195.65,-290.04 193.35,-296.65"/>
</a>
</g>
</g>
<!-- Node4 -->
<g id="Node000004" class="node">
<title>Node4</title>
<g id="a_Node000004"><a xlink:href="logging_8c.html#a6c0ddc8d3a828f3ab26c557ba0aedf75" target="_top" xlink:title="Load function names from a text file.">
<polygon fill="white" stroke="#666666" points="349,-278 182,-278 182,-259 349,-259 349,-278"/>
<text text-anchor="middle" x="265.5" y="-266" font-family="Helvetica,sans-Serif" font-size="10.00">LoadAllowedFunctionsFromFile</text>
</a>
</g>
</g>
<!-- Node1&#45;&gt;Node4 -->
<g id="edge3_Node000001_Node000004" class="edge">
<title>Node1&#45;&gt;Node4</title>
<g id="a_edge3_Node000001_Node000004"><a xlink:title=" ">
<path fill="none" stroke="#63b8ff" d="M91.05,-190.56C111.32,-207.67 146.84,-235.18 182,-250.5 186.75,-252.57 191.76,-254.41 196.87,-256.05"/>
<polygon fill="#63b8ff" stroke="#63b8ff" points="196.19,-259.5 206.77,-258.95 198.16,-252.78 196.19,-259.5"/>
</a>
</g>
</g>
<!-- Node6 -->
<g id="Node000006" class="node">
<title>Node6</title>
<g id="a_Node000006"><a xlink:href="logging_8c.html#ad2278570e8ce1a71bb269a51f9a20d88" target="_top" xlink:title="Prints the coordinates of a cell&#39;s vertices.">
<polygon fill="white" stroke="#666666" points="324,-241 207,-241 207,-222 324,-222 324,-241"/>
<text text-anchor="middle" x="265.5" y="-229" font-family="Helvetica,sans-Serif" font-size="10.00">LOG_CELL_VERTICES</text>
</a>
</g>
</g>
<!-- Node1&#45;&gt;Node6 -->
<g id="edge5_Node000001_Node000006" class="edge">
<title>Node1&#45;&gt;Node6</title>
<g id="a_edge5_Node000001_Node000006"><a xlink:title=" ">
<path fill="none" stroke="#63b8ff" d="M113.12,-190.58C133.47,-198.08 158.86,-206.93 182,-213.5 189.72,-215.69 197.91,-217.77 206.02,-219.68"/>
<polygon fill="#63b8ff" stroke="#63b8ff" points="205.3,-223.11 215.83,-221.93 206.86,-216.28 205.3,-223.11"/>
</a>
</g>
</g>
<!-- Node7 -->
<g id="Node000007" class="node">
<title>Node7</title>
<g id="a_Node000007"><a xlink:href="logging_8c.html#a9baaed9103be8264832b39c7dbb2ce1a" target="_top" xlink:title="Prints the signed distances to each face of the cell.">
<polygon fill="white" stroke="#666666" points="328.5,-204 202.5,-204 202.5,-185 328.5,-185 328.5,-204"/>
<text text-anchor="middle" x="265.5" y="-192" font-family="Helvetica,sans-Serif" font-size="10.00">LOG_FACE_DISTANCES</text>
</a>
</g>
</g>
<!-- Node1&#45;&gt;Node7 -->
<g id="edge6_Node000001_Node000007" class="edge">
<title>Node1&#45;&gt;Node7</title>
<g id="a_edge6_Node000001_Node000007"><a xlink:title=" ">
<path fill="none" stroke="#63b8ff" d="M146.02,-182.68C161.09,-184.19 176.98,-185.77 192.06,-187.28"/>
<polygon fill="#63b8ff" stroke="#63b8ff" points="192.06,-190.79 202.35,-188.3 192.75,-183.83 192.06,-190.79"/>
</a>
</g>
</g>
<!-- Node8 -->
<g id="Node000008" class="node">
<title>Node8</title>
<g id="a_Node000008"><a xlink:href="test__support_8c.html#af56b84b3c32d30203d5de7e456e45631" target="_top" xlink:title="Asserts that one boolean condition is true.">
<polygon fill="white" stroke="#666666" points="315,-167 216,-167 216,-148 315,-148 315,-167"/>
<text text-anchor="middle" x="265.5" y="-155" font-family="Helvetica,sans-Serif" font-size="10.00">PicurvAssertBool</text>
</a>
</g>
</g>
<!-- Node1&#45;&gt;Node8 -->
<g id="edge7_Node000001_Node000008" class="edge">
<title>Node1&#45;&gt;Node8</title>
<g id="a_edge7_Node000001_Node000008"><a xlink:title=" ">
<path fill="none" stroke="#63b8ff" d="M146.02,-168.69C165.67,-166.84 186.72,-164.85 205.55,-163.07"/>
<polygon fill="#63b8ff" stroke="#63b8ff" points="206.13,-166.53 215.75,-162.11 205.47,-159.56 206.13,-166.53"/>
</a>
</g>
</g>
<!-- Node9 -->
<g id="Node000009" class="node">
<title>Node9</title>
<g id="a_Node000009"><a xlink:href="test__support_8c.html#adfeee0c50dd7707df53e585419e6da2c" target="_top" xlink:title="Asserts that two integer values are equal.">
<polygon fill="white" stroke="#666666" points="324,-130 207,-130 207,-111 324,-111 324,-130"/>
<text text-anchor="middle" x="265.5" y="-118" font-family="Helvetica,sans-Serif" font-size="10.00">PicurvAssertIntEqual</text>
</a>
</g>
</g>
<!-- Node1&#45;&gt;Node9 -->
<g id="edge8_Node000001_Node000009" class="edge">
<title>Node1&#45;&gt;Node9</title>
<g id="a_edge8_Node000001_Node000009"><a xlink:title=" ">
<path fill="none" stroke="#63b8ff" d="M116.03,-160.45C135.89,-153.61 160.02,-145.68 182,-139.5 190.83,-137.02 200.26,-134.62 209.47,-132.4"/>
<polygon fill="#63b8ff" stroke="#63b8ff" points="210.41,-135.78 219.34,-130.08 208.81,-128.96 210.41,-135.78"/>
</a>
</g>
</g>
<!-- Node10 -->
<g id="Node000010" class="node">
<title>Node10</title>
<g id="a_Node000010"><a xlink:href="test__support_8c.html#a0bf5ef7b0a800ffb1e69973059c74c78" target="_top" xlink:title="Creates a unique temporary directory for one test case.">
<polygon fill="white" stroke="#666666" points="322,-93 209,-93 209,-74 322,-74 322,-93"/>
<text text-anchor="middle" x="265.5" y="-81" font-family="Helvetica,sans-Serif" font-size="10.00">PicurvMakeTempDir</text>
</a>
</g>
</g>
<!-- Node1&#45;&gt;Node10 -->
<g id="edge9_Node000001_Node000010" class="edge">
<title>Node1&#45;&gt;Node10</title>
<g id="a_edge9_Node000001_Node000010"><a xlink:title=" ">
<path fill="none" stroke="#63b8ff" d="M91.89,-160.33C112.37,-143.73 147.55,-117.49 182,-102.5 187.75,-100 193.87,-97.8 200.09,-95.88"/>
<polygon fill="#63b8ff" stroke="#63b8ff" points="201.23,-99.2 209.88,-93.08 199.31,-92.46 201.23,-99.2"/>
</a>
</g>
</g>
<!-- Node11 -->
<g id="Node000011" class="node">
<title>Node11</title>
<g id="a_Node000011"><a xlink:href="test__support_8c.html#afa2489af564a011a477e22a4aa9e28f4" target="_top" xlink:title="Recursively removes a temporary directory created by PicurvMakeTempDir.">
<polygon fill="white" stroke="#666666" points="329.5,-56 201.5,-56 201.5,-37 329.5,-37 329.5,-56"/>
<text text-anchor="middle" x="265.5" y="-44" font-family="Helvetica,sans-Serif" font-size="10.00">PicurvRemoveTempDir</text>
</a>
</g>
</g>
<!-- Node1&#45;&gt;Node11 -->
<g id="edge10_Node000001_Node000011" class="edge">
<title>Node1&#45;&gt;Node11</title>
<g id="a_edge10_Node000001_Node000011"><a xlink:title=" ">
<path fill="none" stroke="#63b8ff" d="M84.35,-160.39C101.64,-136.36 138.8,-89.69 182,-65.5 186,-63.26 190.26,-61.28 194.64,-59.54"/>
<polygon fill="#63b8ff" stroke="#63b8ff" points="196.14,-62.72 204.4,-56.08 193.8,-56.12 196.14,-62.72"/>
</a>
</g>
</g>
<!-- Node12 -->
<g id="Node000012" class="node">
<title>Node12</title>
<g id="a_Node000012"><a xlink:href="logging_8c.html#a7d73ab7b1517a3c8256b2447f88b633e" target="_top" xlink:title="Prints a progress bar to the console.">
<polygon fill="white" stroke="#666666" points="314.5,-19 216.5,-19 216.5,0 314.5,0 314.5,-19"/>
<text text-anchor="middle" x="265.5" y="-7" font-family="Helvetica,sans-Serif" font-size="10.00">PrintProgressBar</text>
</a>
</g>
</g>
<!-- Node1&#45;&gt;Node12 -->
<g id="edge11_Node000001_Node000012" class="edge">
<title>Node1&#45;&gt;Node12</title>
<g id="a_edge11_Node000001_Node000012"><a xlink:title=" ">
<path fill="none" stroke="#63b8ff" d="M80.69,-160.22C94.75,-129.96 130.41,-62.43 182,-28.5 189.41,-23.63 197.9,-20 206.56,-17.3"/>
<polygon fill="#63b8ff" stroke="#63b8ff" points="207.63,-20.63 216.36,-14.62 205.79,-13.88 207.63,-20.63"/>
</a>
</g>
</g>
<!-- Node5 -->
<g id="Node000005" class="node">
<title>Node5</title>
<g id="a_Node000005"><a xlink:href="logging_8c.html#a6b21b3f128c91055d8784740fcf05519" target="_top" xlink:title="Remove leading and trailing whitespace from a mutable configuration string.">
<polygon fill="white" stroke="#666666" points="422,-278 385,-278 385,-259 422,-259 422,-278"/>
<text text-anchor="middle" x="403.5" y="-266" font-family="Helvetica,sans-Serif" font-size="10.00">trim</text>
</a>
</g>
</g>
<!-- Node4&#45;&gt;Node5 -->
<g id="edge4_Node000004_Node000005" class="edge">
<title>Node4&#45;&gt;Node5</title>
<g id="a_edge4_Node000004_Node000005"><a xlink:title=" ">
<path fill="none" stroke="#63b8ff" d="M349.14,-268.5C358.21,-268.5 366.92,-268.5 374.58,-268.5"/>
<polygon fill="#63b8ff" stroke="#63b8ff" points="374.62,-272 384.62,-268.5 374.62,-265 374.62,-272"/>
</a>
</g>
</g>
</g>
</svg>
