<?xml version="1.0" encoding="UTF-8" standalone="no"?>
<!DOCTYPE svg PUBLIC "-//W3C//DTD SVG 1.1//EN"
 "http://www.w3.org/Graphics/SVG/1.1/DTD/svg11.dtd">
<!-- Generated by graphviz version 2.43.0 (0)
 -->
<!-- Title: TestComputeParticleMSDEmptySwarmNoOutput Pages: 1 -->
<svg width="966pt" height="479pt"
 viewBox="0.00 0.00 966.00 479.00" xmlns="http://www.w3.org/2000/svg" xmlns:xlink="http://www.w3.org/1999/xlink">
<g id="graph0" class="graph" transform="scale(1 1) rotate(0) translate(4 475)">
<title>TestComputeParticleMSDEmptySwarmNoOutput</title>
<!-- Node1 -->
<g id="Node000001" class="node">
<title>Node1</title>
<g id="a_Node000001"><a xlink:title="Tests that empty swarms do not emit MSD CSV output.">
<polygon fill="#999999" stroke="#666666" points="170,-208.5 0,-208.5 0,-178.5 170,-178.5 170,-208.5"/>
<text text-anchor="start" x="8" y="-196.5" font-family="Helvetica,sans-Serif" font-size="10.00">TestComputeParticleMSDEmpty</text>
<text text-anchor="middle" x="85" y="-185.5" font-family="Helvetica,sans-Serif" font-size="10.00">SwarmNoOutput</text>
</a>
</g>
</g>
<!-- Node2 -->
<g id="Node000002" class="node">
<title>Node2</title>
<g id="a_Node000002"><a xlink:href="particle__statistics_8c.html#acfb130aeba6e6d430c0ca599b34e38d4" target="_top" xlink:title="Computes the mean&#45;squared displacement (MSD) of a particle cloud.">
<polygon fill="white" stroke="#666666" points="349.5,-411 230.5,-411 230.5,-392 349.5,-392 349.5,-411"/>
<text text-anchor="middle" x="290" y="-399" font-family="Helvetica,sans-Serif" font-size="10.00">ComputeParticleMSD</text>
</a>
</g>
</g>
<!-- Node1&#45;&gt;Node2 -->
<g id="edge1_Node000001_Node000002" class="edge">
<title>Node1&#45;&gt;Node2</title>
<g id="a_edge1_Node000001_Node000002"><a xlink:title=" ">
<path fill="none" stroke="#63b8ff" d="M100.93,-208.79C137.93,-246.71 233.7,-344.84 272.41,-384.5"/>
<polygon fill="#63b8ff" stroke="#63b8ff" points="270.07,-387.11 279.56,-391.82 275.08,-382.22 270.07,-387.11"/>
</a>
</g>
</g>
<!-- Node5 -->
<g id="Node000005" class="node">
<title>Node5</title>
<g id="a_Node000005"><a xlink:href="test__support_8c.html#af56b84b3c32d30203d5de7e456e45631" target="_top" xlink:title="Asserts that one boolean condition is true.">
<polygon fill="white" stroke="#666666" points="339.5,-296 240.5,-296 240.5,-277 339.5,-277 339.5,-296"/>
<text text-anchor="middle" x="290" y="-284" font-family="Helvetica,sans-Serif" font-size="10.00">PicurvAssertBool</text>
</a>
</g>
</g>
<!-- Node1&#45;&gt;Node5 -->
<g id="edge4_Node000001_Node000005" class="edge">
<title>Node1&#45;&gt;Node5</title>
<g id="a_edge4_Node000001_Node000005"><a xlink:title=" ">
<path fill="none" stroke="#63b8ff" d="M105.65,-208.79C128.51,-225.84 167.99,-253.05 206,-268.5 213.76,-271.65 222.15,-274.29 230.53,-276.49"/>
<polygon fill="#63b8ff" stroke="#63b8ff" points="229.77,-279.91 240.31,-278.87 231.42,-273.11 229.77,-279.91"/>
</a>
</g>
</g>
<!-- Node6 -->
<g id="Node000006" class="node">
<title>Node6</title>
<g id="a_Node000006"><a xlink:href="test__support_8c.html#a0cf6b441f404b07c0f35cbe968cfb624" target="_top" xlink:title="Builds minimal SimCtx and UserCtx fixtures for C unit tests.">
<polygon fill="white" stroke="#666666" points="371,-259 209,-259 209,-240 371,-240 371,-259"/>
<text text-anchor="middle" x="290" y="-247" font-family="Helvetica,sans-Serif" font-size="10.00">PicurvCreateMinimalContexts</text>
</a>
</g>
</g>
<!-- Node1&#45;&gt;Node6 -->
<g id="edge5_Node000001_Node000006" class="edge">
<title>Node1&#45;&gt;Node6</title>
<g id="a_edge5_Node000001_Node000006"><a xlink:title=" ">
<path fill="none" stroke="#63b8ff" d="M130.16,-208.57C152.71,-215.98 180.66,-224.76 206,-231.5 214.19,-233.68 222.89,-235.79 231.46,-237.75"/>
<polygon fill="#63b8ff" stroke="#63b8ff" points="230.89,-241.21 241.41,-239.98 232.42,-234.38 230.89,-241.21"/>
</a>
</g>
</g>
<!-- Node16 -->
<g id="Node000016" class="node">
<title>Node16</title>
<g id="a_Node000016"><a xlink:href="test__support_8c.html#a4fded7e050920885b9b5154681d88ca2" target="_top" xlink:title="Creates matched solver and post&#45;processing swarms for tests.">
<polygon fill="white" stroke="#666666" points="355.5,-222 224.5,-222 224.5,-203 355.5,-203 355.5,-222"/>
<text text-anchor="middle" x="290" y="-210" font-family="Helvetica,sans-Serif" font-size="10.00">PicurvCreateSwarmPair</text>
</a>
</g>
</g>
<!-- Node1&#45;&gt;Node16 -->
<g id="edge16_Node000001_Node000016" class="edge">
<title>Node1&#45;&gt;Node16</title>
<g id="a_edge16_Node000001_Node000016"><a xlink:title=" ">
<path fill="none" stroke="#63b8ff" d="M170.03,-201.37C184.6,-202.73 199.67,-204.14 213.98,-205.48"/>
<polygon fill="#63b8ff" stroke="#63b8ff" points="213.96,-208.99 224.25,-206.44 214.62,-202.02 213.96,-208.99"/>
</a>
</g>
</g>
<!-- Node18 -->
<g id="Node000018" class="node">
<title>Node18</title>
<g id="a_Node000018"><a xlink:href="test__support_8c.html#a2b0d4cb91cbb751680e744afdf24f8c4" target="_top" xlink:title="Destroys minimal SimCtx/UserCtx fixtures and all owned PETSc objects.">
<polygon fill="white" stroke="#666666" points="374,-185 206,-185 206,-166 374,-166 374,-185"/>
<text text-anchor="middle" x="290" y="-173" font-family="Helvetica,sans-Serif" font-size="10.00">PicurvDestroyMinimalContexts</text>
</a>
</g>
</g>
<!-- Node1&#45;&gt;Node18 -->
<g id="edge18_Node000001_Node000018" class="edge">
<title>Node1&#45;&gt;Node18</title>
<g id="a_edge18_Node000001_Node000018"><a xlink:title=" ">
<path fill="none" stroke="#63b8ff" d="M170.03,-186.05C178.5,-185.3 187.13,-184.53 195.69,-183.77"/>
<polygon fill="#63b8ff" stroke="#63b8ff" points="196.03,-187.26 205.68,-182.89 195.41,-180.28 196.03,-187.26"/>
</a>
</g>
</g>
<!-- Node26 -->
<g id="Node000026" class="node">
<title>Node26</title>
<g id="a_Node000026"><a xlink:href="test__support_8c.html#a0bf5ef7b0a800ffb1e69973059c74c78" target="_top" xlink:title="Creates a unique temporary directory for one test case.">
<polygon fill="white" stroke="#666666" points="346.5,-148 233.5,-148 233.5,-129 346.5,-129 346.5,-148"/>
<text text-anchor="middle" x="290" y="-136" font-family="Helvetica,sans-Serif" font-size="10.00">PicurvMakeTempDir</text>
</a>
</g>
</g>
<!-- Node1&#45;&gt;Node26 -->
<g id="edge26_Node000001_Node000026" class="edge">
<title>Node1&#45;&gt;Node26</title>
<g id="a_edge26_Node000001_Node000026"><a xlink:title=" ">
<path fill="none" stroke="#63b8ff" d="M133.39,-178.49C155.38,-171.73 181.92,-163.86 206,-157.5 215.33,-155.03 225.31,-152.59 234.99,-150.32"/>
<polygon fill="#63b8ff" stroke="#63b8ff" points="235.98,-153.68 244.93,-148.02 234.4,-146.86 235.98,-153.68"/>
</a>
</g>
</g>
<!-- Node27 -->
<g id="Node000027" class="node">
<title>Node27</title>
<g id="a_Node000027"><a xlink:href="test__support_8c.html#afa2489af564a011a477e22a4aa9e28f4" target="_top" xlink:title="Recursively removes a temporary directory created by PicurvMakeTempDir.">
<polygon fill="white" stroke="#666666" points="354,-111 226,-111 226,-92 354,-92 354,-111"/>
<text text-anchor="middle" x="290" y="-99" font-family="Helvetica,sans-Serif" font-size="10.00">PicurvRemoveTempDir</text>
</a>
</g>
</g>
<!-- Node1&#45;&gt;Node27 -->
<g id="edge27_Node000001_Node000027" class="edge">
<title>Node1&#45;&gt;Node27</title>
<g id="a_edge27_Node000001_Node000027"><a xlink:title=" ">
<path fill="none" stroke="#63b8ff" d="M106.16,-178.42C129.17,-161.9 168.5,-135.73 206,-120.5 212.26,-117.96 218.92,-115.72 225.66,-113.75"/>
<polygon fill="#63b8ff" stroke="#63b8ff" points="226.79,-117.07 235.53,-111.07 224.96,-110.32 226.79,-117.07"/>
</a>
</g>
</g>
<!-- Node28 -->
<g id="Node000028" class="node">
<title>Node28</title>
<g id="a_Node000028"><a xlink:href="io_8c.html#ac987aaa15b74df6b2b6a8f914c098630" target="_top" xlink:title="A parallel&#45;safe helper to verify the existence of a generic file or directory path.">
<polygon fill="white" stroke="#666666" points="346.5,-74 233.5,-74 233.5,-55 346.5,-55 346.5,-74"/>
<text text-anchor="middle" x="290" y="-62" font-family="Helvetica,sans-Serif" font-size="10.00">VerifyPathExistence</text>
</a>
</g>
</g>
<!-- Node1&#45;&gt;Node28 -->
<g id="edge28_Node000001_Node000028" class="edge">
<title>Node1&#45;&gt;Node28</title>
<g id="a_edge28_Node000001_Node000028"><a xlink:title=" ">
<path fill="none" stroke="#63b8ff" d="M97.89,-178.42C117.65,-154.43 159.71,-107.81 206,-83.5 211.5,-80.61 217.42,-78.16 223.49,-76.08"/>
<polygon fill="#63b8ff" stroke="#63b8ff" points="224.59,-79.41 233.1,-73.11 222.52,-72.72 224.59,-79.41"/>
</a>
</g>
</g>
<!-- Node3 -->
<g id="Node000003" class="node">
<title>Node3</title>
<g id="a_Node000003"><a xlink:href="particle__statistics_8c.html#a2e36221617211f1cd7e7925615bd6d1a" target="_top" xlink:title="Rewrite the MSD CSV so the requested timestep appears exactly once.">
<polygon fill="white" stroke="#666666" points="557,-432 425,-432 425,-413 557,-413 557,-432"/>
<text text-anchor="middle" x="491" y="-420" font-family="Helvetica,sans-Serif" font-size="10.00">RewriteParticleMSDCSV</text>
</a>
</g>
</g>
<!-- Node2&#45;&gt;Node3 -->
<g id="edge2_Node000002_Node000003" class="edge">
<title>Node2&#45;&gt;Node3</title>
<g id="a_edge2_Node000002_Node000003"><a xlink:title=" ">
<path fill="none" stroke="#63b8ff" d="M349.63,-407.69C370.02,-409.84 393.18,-412.28 414.72,-414.56"/>
<polygon fill="#63b8ff" stroke="#63b8ff" points="414.51,-418.05 424.82,-415.62 415.25,-411.09 414.51,-418.05"/>
</a>
</g>
</g>
<!-- Node4 -->
<g id="Node000004" class="node">
<title>Node4</title>
<g id="a_Node000004"><a xlink:href="particle__statistics_8c.html#abfe2ce5619119391ef2dc117963d32d7" target="_top" xlink:title="Return whether a CSV row belongs to the requested timestep.">
<polygon fill="white" stroke="#666666" points="760.5,-471 618.5,-471 618.5,-452 760.5,-452 760.5,-471"/>
<text text-anchor="middle" x="689.5" y="-459" font-family="Helvetica,sans-Serif" font-size="10.00">MSDCSVLineMatchesStep</text>
</a>
</g>
</g>
<!-- Node3&#45;&gt;Node4 -->
<g id="edge3_Node000003_Node000004" class="edge">
<title>Node3&#45;&gt;Node4</title>
<g id="a_edge3_Node000003_Node000004"><a xlink:title=" ">
<path fill="none" stroke="#63b8ff" d="M540.07,-432.04C567.41,-437.47 601.84,-444.3 630.65,-450.02"/>
<polygon fill="#63b8ff" stroke="#63b8ff" points="630.1,-453.48 640.59,-451.99 631.46,-446.61 630.1,-453.48"/>
</a>
</g>
</g>
<!-- Node7 -->
<g id="Node000007" class="node">
<title>Node7</title>
<g id="a_Node000007"><a xlink:href="test__support_8c.html#a30acb18b44f81f5e0eda73488feb2a6e" target="_top" xlink:title="Builds minimal SimCtx and UserCtx fixtures for C unit tests with configurable periodicity.">
<polygon fill="white" stroke="#666666" points="572,-326.5 410,-326.5 410,-296.5 572,-296.5 572,-326.5"/>
<text text-anchor="start" x="418" y="-314.5" font-family="Helvetica,sans-Serif" font-size="10.00">PicurvCreateMinimalContexts</text>
<text text-anchor="middle" x="491" y="-303.5" font-family="Helvetica,sans-Serif" font-size="10.00">WithPeriodicity</text>
</a>
</g>
</g>
<!-- Node6&#45;&gt;Node7 -->
<g id="edge6_Node000006_Node000007" class="edge">
<title>Node6&#45;&gt;Node7</title>
<g id="a_edge6_Node000006_Node000007"><a xlink:title=" ">
<path fill="none" stroke="#63b8ff" d="M342.53,-259.1C353.09,-261.67 364.02,-264.8 374,-268.5 390.96,-274.79 393.26,-280.65 410,-287.5 414.82,-289.48 419.87,-291.37 424.98,-293.16"/>
<polygon fill="#63b8ff" stroke="#63b8ff" points="424.26,-296.61 434.85,-296.49 426.5,-289.98 424.26,-296.61"/>
</a>
</g>
</g>
<!-- Node8 -->
<g id="Node000008" class="node">
<title>Node8</title>
<g id="a_Node000008"><a xlink:href="grid_8c.html#a325b9d5da4b9b2c79d278fb848215632" target="_top" xlink:title="Broadcasts the bounding box information collected on rank 0 to all other ranks.">
<polygon fill="white" stroke="#666666" points="766,-434 613,-434 613,-415 766,-415 766,-434"/>
<text text-anchor="middle" x="689.5" y="-422" font-family="Helvetica,sans-Serif" font-size="10.00">BroadcastAllBoundingBoxes</text>
</a>
</g>
</g>
<!-- Node7&#45;&gt;Node8 -->
<g id="edge7_Node000007_Node000008" class="edge">
<title>Node7&#45;&gt;Node8</title>
<g id="a_edge7_Node000007_Node000008"><a xlink:title=" ">
<path fill="none" stroke="#63b8ff" d="M507.61,-326.52C528.76,-346.13 568.44,-380.3 608,-400.5 616.86,-405.03 626.72,-408.84 636.42,-412.01"/>
<polygon fill="#63b8ff" stroke="#63b8ff" points="635.43,-415.37 646.01,-414.96 637.48,-408.68 635.43,-415.37"/>
</a>
</g>
</g>
<!-- Node9 -->
<g id="Node000009" class="node">
<title>Node9</title>
<g id="a_Node000009"><a xlink:href="grid_8c.html#ae0c39bc7c78a15bedf9f1415ab1dded4" target="_top" xlink:title="Computes the local bounding box of the grid on the current process.">
<polygon fill="white" stroke="#666666" points="958,-321 807,-321 807,-302 958,-302 958,-321"/>
<text text-anchor="middle" x="882.5" y="-309" font-family="Helvetica,sans-Serif" font-size="10.00">ComputeLocalBoundingBox</text>
</a>
</g>
</g>
<!-- Node7&#45;&gt;Node9 -->
<g id="edge8_Node000007_Node000009" class="edge">
<title>Node7&#45;&gt;Node9</title>
<g id="a_edge8_Node000007_Node000009"><a xlink:title=" ">
<path fill="none" stroke="#63b8ff" d="M515.27,-326.63C537.9,-340.38 573.77,-359.67 608,-367.5 678.62,-383.65 700.54,-384.34 771,-367.5 803.76,-359.67 837.8,-340.46 859.29,-326.73"/>
<polygon fill="#63b8ff" stroke="#63b8ff" points="861.24,-329.63 867.69,-321.22 857.4,-323.77 861.24,-329.63"/>
</a>
</g>
</g>
<!-- Node10 -->
<g id="Node000010" class="node">
<title>Node10</title>
<g id="a_Node000010"><a xlink:href="test__support_8c.html#a845e376da4cb213d54b0f72235252a21" target="_top" xlink:title="Duplicates and zeroes a vector.">
<polygon fill="white" stroke="#666666" points="754.5,-358 624.5,-358 624.5,-339 754.5,-339 754.5,-358"/>
<text text-anchor="middle" x="689.5" y="-346" font-family="Helvetica,sans-Serif" font-size="10.00">CreateZeroedDuplicate</text>
</a>
</g>
</g>
<!-- Node7&#45;&gt;Node10 -->
<g id="edge9_Node000007_Node000010" class="edge">
<title>Node7&#45;&gt;Node10</title>
<g id="a_edge9_Node000007_Node000010"><a xlink:title=" ">
<path fill="none" stroke="#63b8ff" d="M571.92,-326.55C590.58,-330.06 610.14,-333.75 627.8,-337.07"/>
<polygon fill="#63b8ff" stroke="#63b8ff" points="627.49,-340.57 637.96,-338.98 628.78,-333.69 627.49,-340.57"/>
</a>
</g>
</g>
<!-- Node11 -->
<g id="Node000011" class="node">
<title>Node11</title>
<g id="a_Node000011"><a xlink:href="test__support_8c.html#ae0f13c5bfc5faa05903081af1c8dc7c7" target="_top" xlink:title="Allocates and zeroes a global vector from the provided DM.">
<polygon fill="white" stroke="#666666" points="762.5,-321 616.5,-321 616.5,-302 762.5,-302 762.5,-321"/>
<text text-anchor="middle" x="689.5" y="-309" font-family="Helvetica,sans-Serif" font-size="10.00">CreateZeroedGlobalVector</text>
</a>
</g>
</g>
<!-- Node7&#45;&gt;Node11 -->
<g id="edge10_Node000007_Node000011" class="edge">
<title>Node7&#45;&gt;Node11</title>
<g id="a_edge10_Node000007_Node000011"><a xlink:title=" ">
<path fill="none" stroke="#63b8ff" d="M572.21,-311.5C583.42,-311.5 594.96,-311.5 606.21,-311.5"/>
<polygon fill="#63b8ff" stroke="#63b8ff" points="606.44,-315 616.44,-311.5 606.44,-308 606.44,-315"/>
</a>
</g>
</g>
<!-- Node12 -->
<g id="Node000012" class="node">
<title>Node12</title>
<g id="a_Node000012"><a xlink:href="test__support_8c.html#a4bba41417f947e3ccffce86f48d8322f" target="_top" xlink:title="Allocates and zeroes a local vector from the provided DM.">
<polygon fill="white" stroke="#666666" points="759.5,-284 619.5,-284 619.5,-265 759.5,-265 759.5,-284"/>
<text text-anchor="middle" x="689.5" y="-272" font-family="Helvetica,sans-Serif" font-size="10.00">CreateZeroedLocalVector</text>
</a>
</g>
</g>
<!-- Node7&#45;&gt;Node12 -->
<g id="edge11_Node000007_Node000012" class="edge">
<title>Node7&#45;&gt;Node12</title>
<g id="a_edge11_Node000007_Node000012"><a xlink:title=" ">
<path fill="none" stroke="#63b8ff" d="M571.92,-296.45C590.58,-292.94 610.14,-289.25 627.8,-285.93"/>
<polygon fill="#63b8ff" stroke="#63b8ff" points="628.78,-289.31 637.96,-284.02 627.49,-282.43 628.78,-289.31"/>
</a>
</g>
</g>
<!-- Node13 -->
<g id="Node000013" class="node">
<title>Node13</title>
<g id="a_Node000013"><a xlink:href="grid_8c.html#afac52c252de784d5bcd7fe7a2e642982" target="_top" xlink:title="Gathers local bounding boxes from all MPI processes to rank 0.">
<polygon fill="white" stroke="#666666" points="758,-247 621,-247 621,-228 758,-228 758,-247"/>
<text text-anchor="middle" x="689.5" y="-235" font-family="Helvetica,sans-Serif" font-size="10.00">GatherAllBoundingBoxes</text>
</a>
</g>
</g>
<!-- Node7&#45;&gt;Node13 -->
<g id="edge12_Node000007_Node000013" class="edge">
<title>Node7&#45;&gt;Node13</title>
<g id="a_edge12_Node000007_Node000013"><a xlink:title=" ">
<path fill="none" stroke="#63b8ff" d="M552.11,-296.5C558.99,-293.9 565.77,-290.91 572,-287.5 590.52,-277.36 589.19,-266.09 608,-256.5 612.6,-254.16 617.5,-252.1 622.51,-250.28"/>
<polygon fill="#63b8ff" stroke="#63b8ff" points="623.85,-253.53 632.27,-247.1 621.67,-246.88 623.85,-253.53"/>
</a>
</g>
</g>
<!-- Node14 -->
<g id="Node000014" class="node">
<title>Node14</title>
<g id="a_Node000014"><a xlink:href="test__support_8c.html#ae98520a4a6fd84fabdbbd460115a7b25" target="_top" xlink:title="Populates identity metric vectors on the minimal grid fixture.">
<polygon fill="white" stroke="#666666" points="771,-210 608,-210 608,-191 771,-191 771,-210"/>
<text text-anchor="middle" x="689.5" y="-198" font-family="Helvetica,sans-Serif" font-size="10.00">PicurvPopulateIdentityMetrics</text>
</a>
</g>
</g>
<!-- Node7&#45;&gt;Node14 -->
<g id="edge14_Node000007_Node000014" class="edge">
<title>Node7&#45;&gt;Node14</title>
<g id="a_edge14_Node000007_Node000014"><a xlink:title=" ">
<path fill="none" stroke="#63b8ff" d="M558.37,-296.34C563.24,-293.83 567.85,-290.91 572,-287.5 598.42,-265.79 580.94,-240.41 608,-219.5 610.34,-217.69 612.83,-216.05 615.43,-214.56"/>
<polygon fill="#63b8ff" stroke="#63b8ff" points="617.16,-217.6 624.6,-210.06 614.08,-211.32 617.16,-217.6"/>
</a>
</g>
</g>
<!-- Node15 -->
<g id="Node000015" class="node">
<title>Node15</title>
<g id="a_Node000015"><a xlink:href="test__support_8c.html#a8631242d611d0a255915a5835a673c71" target="_top" xlink:title="Populates cell center coordinates for a uniform grid on [0,1]^3.">
<polygon fill="white" stroke="#666666" points="763.5,-172.5 615.5,-172.5 615.5,-142.5 763.5,-142.5 763.5,-172.5"/>
<text text-anchor="start" x="623.5" y="-160.5" font-family="Helvetica,sans-Serif" font-size="10.00">PicurvPopulateUniformCell</text>
<text text-anchor="middle" x="689.5" y="-149.5" font-family="Helvetica,sans-Serif" font-size="10.00">Centers</text>
</a>
</g>
</g>
<!-- Node7&#45;&gt;Node15 -->
<g id="edge15_Node000007_Node000015" class="edge">
<title>Node7&#45;&gt;Node15</title>
<g id="a_edge15_Node000007_Node000015"><a xlink:title=" ">
<path fill="none" stroke="#63b8ff" d="M560.13,-296.37C564.43,-293.85 568.45,-290.92 572,-287.5 607.55,-253.3 572.61,-216.87 608,-182.5 609.5,-181.05 611.07,-179.68 612.72,-178.39"/>
<polygon fill="#63b8ff" stroke="#63b8ff" points="615.08,-181.03 621.47,-172.58 611.21,-175.2 615.08,-181.03"/>
</a>
</g>
</g>
<!-- Node13&#45;&gt;Node9 -->
<g id="edge13_Node000013_Node000009" class="edge">
<title>Node13&#45;&gt;Node9</title>
<g id="a_edge13_Node000013_Node000009"><a xlink:title=" ">
<path fill="none" stroke="#63b8ff" d="M739.13,-247.07C749.77,-249.69 760.87,-252.84 771,-256.5 801.37,-267.48 834.28,-284.59 856.21,-296.81"/>
<polygon fill="#63b8ff" stroke="#63b8ff" points="854.75,-300.01 865.18,-301.88 858.19,-293.91 854.75,-300.01"/>
</a>
</g>
</g>
<!-- Node17 -->
<g id="Node000017" class="node">
<title>Node17</title>
<g id="a_Node000017"><a xlink:href="test__support_8c.html#ac1c70f4a875b2d7f4831d3b247c82139" target="_top" xlink:title="Registers one DMSwarm field used by the C test fixtures.">
<polygon fill="white" stroke="#666666" points="568,-278 414,-278 414,-259 568,-259 568,-278"/>
<text text-anchor="middle" x="491" y="-266" font-family="Helvetica,sans-Serif" font-size="10.00">RegisterSwarmFieldForTests</text>
</a>
</g>
</g>
<!-- Node16&#45;&gt;Node17 -->
<g id="edge17_Node000016_Node000017" class="edge">
<title>Node16&#45;&gt;Node17</title>
<g id="a_edge17_Node000016_Node000017"><a xlink:title=" ">
<path fill="none" stroke="#63b8ff" d="M342.53,-222.1C353.09,-224.67 364.02,-227.8 374,-231.5 390.96,-237.79 393.03,-244.24 410,-250.5 415.87,-252.67 422.09,-254.62 428.35,-256.37"/>
<polygon fill="#63b8ff" stroke="#63b8ff" points="427.64,-259.8 438.2,-258.95 429.42,-253.03 427.64,-259.8"/>
</a>
</g>
</g>
<!-- Node19 -->
<g id="Node000019" class="node">
<title>Node19</title>
<g id="a_Node000019"><a xlink:href="test__support_8c.html#a2845986ec10e9d9a82f93be4f20a7a75" target="_top" xlink:title="Destroys a PETSc DM only when the handle is non&#45;null.">
<polygon fill="white" stroke="#666666" points="538,-241 444,-241 444,-222 538,-222 538,-241"/>
<text text-anchor="middle" x="491" y="-229" font-family="Helvetica,sans-Serif" font-size="10.00">DestroyDMIfSet</text>
</a>
</g>
</g>
<!-- Node18&#45;&gt;Node19 -->
<g id="edge19_Node000018_Node000019" class="edge">
<title>Node18&#45;&gt;Node19</title>
<g id="a_edge19_Node000018_Node000019"><a xlink:title=" ">
<path fill="none" stroke="#63b8ff" d="M342.53,-185.1C353.09,-187.67 364.02,-190.8 374,-194.5 390.96,-200.79 393.03,-207.24 410,-213.5 417.6,-216.3 425.77,-218.75 433.88,-220.86"/>
<polygon fill="#63b8ff" stroke="#63b8ff" points="433.16,-224.28 443.71,-223.26 434.83,-217.49 433.16,-224.28"/>
</a>
</g>
</g>
<!-- Node20 -->
<g id="Node000020" class="node">
<title>Node20</title>
<g id="a_Node000020"><a xlink:href="test__support_8c.html#a0a842ce3be2380f94914c299159f5b77" target="_top" xlink:title="Destroys a PETSc KSP only when the handle is non&#45;null.">
<polygon fill="white" stroke="#666666" points="539,-204 443,-204 443,-185 539,-185 539,-204"/>
<text text-anchor="middle" x="491" y="-192" font-family="Helvetica,sans-Serif" font-size="10.00">DestroyKSPIfSet</text>
</a>
</g>
</g>
<!-- Node18&#45;&gt;Node20 -->
<g id="edge20_Node000018_Node000020" class="edge">
<title>Node18&#45;&gt;Node20</title>
<g id="a_edge20_Node000018_Node000020"><a xlink:title=" ">
<path fill="none" stroke="#63b8ff" d="M374.24,-183.45C393.92,-185.33 414.47,-187.29 432.7,-189.03"/>
<polygon fill="#63b8ff" stroke="#63b8ff" points="432.57,-192.53 442.86,-190 433.23,-185.56 432.57,-192.53"/>
</a>
</g>
</g>
<!-- Node21 -->
<g id="Node000021" class="node">
<title>Node21</title>
<g id="a_Node000021"><a xlink:href="test__support_8c.html#af4872f334b38f726deacac58484bb41c" target="_top" xlink:title="Destroys a PETSc matrix only when the handle is non&#45;null.">
<polygon fill="white" stroke="#666666" points="539,-167 443,-167 443,-148 539,-148 539,-167"/>
<text text-anchor="middle" x="491" y="-155" font-family="Helvetica,sans-Serif" font-size="10.00">DestroyMatIfSet</text>
</a>
</g>
</g>
<!-- Node18&#45;&gt;Node21 -->
<g id="edge21_Node000018_Node000021" class="edge">
<title>Node18&#45;&gt;Node21</title>
<g id="a_edge21_Node000018_Node000021"><a xlink:title=" ">
<path fill="none" stroke="#63b8ff" d="M374.24,-167.97C393.92,-166.19 414.47,-164.33 432.7,-162.68"/>
<polygon fill="#63b8ff" stroke="#63b8ff" points="433.21,-166.15 442.86,-161.76 432.58,-159.18 433.21,-166.15"/>
</a>
</g>
</g>
<!-- Node22 -->
<g id="Node000022" class="node">
<title>Node22</title>
<g id="a_Node000022"><a xlink:href="test__support_8c.html#a48255a1183af2223ff32d21dd00fbfb7" target="_top" xlink:title="Destroys a PETSc nullspace only when the handle is non&#45;null.">
<polygon fill="white" stroke="#666666" points="554,-130 428,-130 428,-111 554,-111 554,-130"/>
<text text-anchor="middle" x="491" y="-118" font-family="Helvetica,sans-Serif" font-size="10.00">DestroyNullSpaceIfSet</text>
</a>
</g>
</g>
<!-- Node18&#45;&gt;Node22 -->
<g id="edge22_Node000018_Node000022" class="edge">
<title>Node18&#45;&gt;Node22</title>
<g id="a_edge22_Node000018_Node000022"><a xlink:title=" ">
<path fill="none" stroke="#63b8ff" d="M344.68,-165.92C354.56,-163.58 364.68,-160.78 374,-157.5 390.87,-151.56 393.19,-145.61 410,-139.5 417,-136.96 424.46,-134.66 431.92,-132.62"/>
<polygon fill="#63b8ff" stroke="#63b8ff" points="432.87,-135.99 441.67,-130.08 431.11,-129.22 432.87,-135.99"/>
</a>
</g>
</g>
<!-- Node23 -->
<g id="Node000023" class="node">
<title>Node23</title>
<g id="a_Node000023"><a xlink:href="test__support_8c.html#a5b1f353936498bf98aaae8662a85138b" target="_top" xlink:title="Destroys a PETSc random generator only when the handle is non&#45;null.">
<polygon fill="white" stroke="#666666" points="550,-93 432,-93 432,-74 550,-74 550,-93"/>
<text text-anchor="middle" x="491" y="-81" font-family="Helvetica,sans-Serif" font-size="10.00">DestroyRandomIfSet</text>
</a>
</g>
</g>
<!-- Node18&#45;&gt;Node23 -->
<g id="edge23_Node000018_Node000023" class="edge">
<title>Node18&#45;&gt;Node23</title>
<g id="a_edge23_Node000018_Node000023"><a xlink:title=" ">
<path fill="none" stroke="#63b8ff" d="M357.75,-165.99C363.5,-163.72 369.02,-160.93 374,-157.5 398.07,-140.95 386.09,-119.29 410,-102.5 413.78,-99.84 417.89,-97.56 422.17,-95.59"/>
<polygon fill="#63b8ff" stroke="#63b8ff" points="423.79,-98.71 431.79,-91.76 421.2,-92.2 423.79,-98.71"/>
</a>
</g>
</g>
<!-- Node24 -->
<g id="Node000024" class="node">
<title>Node24</title>
<g id="a_Node000024"><a xlink:href="test__support_8c.html#a8622a6649f49da80c16160d3335402f0" target="_top" xlink:title="Destroys a PETSc vector only when the handle is non&#45;null.">
<polygon fill="white" stroke="#666666" points="538.5,-56 443.5,-56 443.5,-37 538.5,-37 538.5,-56"/>
<text text-anchor="middle" x="491" y="-44" font-family="Helvetica,sans-Serif" font-size="10.00">DestroyVecIfSet</text>
</a>
</g>
</g>
<!-- Node18&#45;&gt;Node24 -->
<g id="edge24_Node000018_Node000024" class="edge">
<title>Node18&#45;&gt;Node24</title>
<g id="a_edge24_Node000018_Node000024"><a xlink:title=" ">
<path fill="none" stroke="#63b8ff" d="M360.99,-165.9C365.67,-163.62 370.07,-160.85 374,-157.5 407.42,-129.02 376.86,-94.3 410,-65.5 416.73,-59.65 424.94,-55.52 433.51,-52.63"/>
<polygon fill="#63b8ff" stroke="#63b8ff" points="434.61,-55.95 443.28,-49.85 432.7,-49.22 434.61,-55.95"/>
</a>
</g>
</g>
<!-- Node25 -->
<g id="Node000025" class="node">
<title>Node25</title>
<g id="a_Node000025"><a xlink:href="io_8c.html#acee53553fb7d51eb948f1d4030518860" target="_top" xlink:title="Frees an entire linked list of boundary&#45;condition parameters.">
<polygon fill="white" stroke="#666666" points="543,-19 439,-19 439,0 543,0 543,-19"/>
<text text-anchor="middle" x="491" y="-7" font-family="Helvetica,sans-Serif" font-size="10.00">FreeBC_ParamList</text>
</a>
</g>
</g>
<!-- Node18&#45;&gt;Node25 -->
<g id="edge25_Node000018_Node000025" class="edge">
<title>Node18&#45;&gt;Node25</title>
<g id="a_edge25_Node000018_Node000025"><a xlink:title=" ">
<path fill="none" stroke="#63b8ff" d="M362.17,-165.93C366.46,-163.62 370.46,-160.84 374,-157.5 417.58,-116.32 366.58,-68.84 410,-27.5 415.39,-22.37 421.91,-18.58 428.87,-15.81"/>
<polygon fill="#63b8ff" stroke="#63b8ff" points="430.18,-19.06 438.59,-12.62 427.99,-12.41 430.18,-19.06"/>
</a>
</g>
</g>
</g>
</svg>
