<?xml version="1.0" encoding="UTF-8" standalone="no"?>
<!DOCTYPE svg PUBLIC "-//W3C//DTD SVG 1.1//EN"
 "http://www.w3.org/Graphics/SVG/1.1/DTD/svg11.dtd">
<!-- Generated by graphviz version 2.43.0 (0)
 -->
<!-- Title: SetInitialFluidState_Restart Pages: 1 -->
<svg width="697pt" height="245pt"
 viewBox="0.00 0.00 697.00 245.46" xmlns="http://www.w3.org/2000/svg" xmlns:xlink="http://www.w3.org/1999/xlink">
<g id="graph0" class="graph" transform="scale(1 1) rotate(0) translate(4 241.46)">
<title>SetInitialFluidState_Restart</title>
<!-- Node1 -->
<g id="Node000001" class="node">
<title>Node1</title>
<g id="a_Node000001"><a xlink:title="(HELPER) Reads fluid state for all blocks from restart files.">
<polygon fill="#999999" stroke="#666666" points="110,-98.5 0,-98.5 0,-68.5 110,-68.5 110,-98.5"/>
<text text-anchor="start" x="8" y="-86.5" font-family="Helvetica,sans-Serif" font-size="10.00">SetInitialFluidState</text>
<text text-anchor="middle" x="55" y="-75.5" font-family="Helvetica,sans-Serif" font-size="10.00">_Restart</text>
</a>
</g>
</g>
<!-- Node2 -->
<g id="Node000002" class="node">
<title>Node2</title>
<g id="a_Node000002"><a xlink:href="io_8c.html#a3a009dabc71ccfa59f196e1bc045de45" target="_top" xlink:title="Reads binary field data for velocity, pressure, and other required vectors.">
<polygon fill="white" stroke="#666666" points="268,-149 146,-149 146,-130 268,-130 268,-149"/>
<text text-anchor="middle" x="207" y="-137" font-family="Helvetica,sans-Serif" font-size="10.00">ReadSimulationFields</text>
</a>
</g>
</g>
<!-- Node1&#45;&gt;Node2 -->
<g id="edge1_Node000001_Node000002" class="edge">
<title>Node1&#45;&gt;Node2</title>
<g id="a_edge1_Node000001_Node000002"><a xlink:title=" ">
<path fill="none" stroke="#63b8ff" d="M96.2,-98.51C119.48,-107.2 148.51,-118.04 170.88,-126.39"/>
<polygon fill="#63b8ff" stroke="#63b8ff" points="169.73,-129.7 180.33,-129.92 172.18,-123.14 169.73,-129.7"/>
</a>
</g>
</g>
<!-- Node9 -->
<g id="Node000009" class="node">
<title>Node9</title>
<g id="a_Node000009"><a xlink:href="setup_8c.html#ad5f82951adcce74b3d37cb5880acf43a" target="_top" xlink:title="Updates the local vector (including ghost points) from its corresponding global vector.">
<polygon fill="white" stroke="#666666" points="262.5,-56 151.5,-56 151.5,-37 262.5,-37 262.5,-56"/>
<text text-anchor="middle" x="207" y="-44" font-family="Helvetica,sans-Serif" font-size="10.00">UpdateLocalGhosts</text>
</a>
</g>
</g>
<!-- Node1&#45;&gt;Node9 -->
<g id="edge12_Node000001_Node000009" class="edge">
<title>Node1&#45;&gt;Node9</title>
<g id="a_edge12_Node000001_Node000009"><a xlink:title=" ">
<path fill="none" stroke="#63b8ff" d="M110.15,-70.14C125.56,-66.34 142.25,-62.23 157.31,-58.51"/>
<polygon fill="#63b8ff" stroke="#63b8ff" points="158.57,-61.8 167.44,-56.01 156.9,-55.01 158.57,-61.8"/>
</a>
</g>
</g>
<!-- Node3 -->
<g id="Node000003" class="node">
<title>Node3</title>
<g id="a_Node000003"><a xlink:href="io_8c.html#a570806d7e0694b5d996e0c6018b48908" target="_top" xlink:title="Reads data for a specific field from a file into the provided vector.">
<polygon fill="white" stroke="#666666" points="689,-224 601,-224 601,-205 689,-205 689,-224"/>
<text text-anchor="middle" x="645" y="-212" font-family="Helvetica,sans-Serif" font-size="10.00">ReadFieldData</text>
</a>
</g>
</g>
<!-- Node2&#45;&gt;Node3 -->
<g id="edge2_Node000002_Node000003" class="edge">
<title>Node2&#45;&gt;Node3</title>
<g id="a_edge2_Node000002_Node000003"><a xlink:title=" ">
<path fill="none" stroke="#63b8ff" d="M216.01,-149.13C231.09,-166.42 265.65,-202.16 304,-215.5 400.64,-249.12 522.3,-236.75 590.79,-225.26"/>
<polygon fill="#63b8ff" stroke="#63b8ff" points="591.65,-228.66 600.9,-223.5 590.45,-221.77 591.65,-228.66"/>
</a>
</g>
</g>
<!-- Node4 -->
<g id="Node000004" class="node">
<title>Node4</title>
<g id="a_Node000004"><a xlink:href="io_8c.html#a45ad89f26c78131d2990f09126abba4b" target="_top" xlink:title="Reads LES&#45;related fields.">
<polygon fill="white" stroke="#666666" points="407,-206 320,-206 320,-187 407,-187 407,-206"/>
<text text-anchor="middle" x="363.5" y="-194" font-family="Helvetica,sans-Serif" font-size="10.00">ReadLESFields</text>
</a>
</g>
</g>
<!-- Node2&#45;&gt;Node4 -->
<g id="edge3_Node000002_Node000004" class="edge">
<title>Node2&#45;&gt;Node4</title>
<g id="a_edge3_Node000002_Node000004"><a xlink:title=" ">
<path fill="none" stroke="#63b8ff" d="M233.86,-149.04C259.37,-158.45 298.57,-172.91 326.99,-183.4"/>
<polygon fill="#63b8ff" stroke="#63b8ff" points="325.96,-186.75 336.56,-186.93 328.39,-180.18 325.96,-186.75"/>
</a>
</g>
</g>
<!-- Node5 -->
<g id="Node000005" class="node">
<title>Node5</title>
<g id="a_Node000005"><a xlink:href="io_8c.html#ac414e8adc74c5fb5e149b42c95baf495" target="_top" xlink:title="Checks for and reads an optional Eulerian field from a file into a Vec.">
<polygon fill="white" stroke="#666666" points="565,-168 459,-168 459,-149 565,-149 565,-168"/>
<text text-anchor="middle" x="512" y="-156" font-family="Helvetica,sans-Serif" font-size="10.00">ReadOptionalField</text>
</a>
</g>
</g>
<!-- Node2&#45;&gt;Node5 -->
<g id="edge7_Node000002_Node000005" class="edge">
<title>Node2&#45;&gt;Node5</title>
<g id="a_edge7_Node000002_Node000005"><a xlink:title=" ">
<path fill="none" stroke="#63b8ff" d="M268.23,-143.28C320.49,-146.55 395.85,-151.28 448.71,-154.59"/>
<polygon fill="#63b8ff" stroke="#63b8ff" points="448.77,-158.1 458.97,-155.24 449.21,-151.12 448.77,-158.1"/>
</a>
</g>
</g>
<!-- Node7 -->
<g id="Node000007" class="node">
<title>Node7</title>
<g id="a_Node000007"><a xlink:href="io_8c.html#a19e2e0b57afae458bae068610141c031" target="_top" xlink:title="Reads RANS&#45;related fields.">
<polygon fill="white" stroke="#666666" points="412,-130 315,-130 315,-111 412,-111 412,-130"/>
<text text-anchor="middle" x="363.5" y="-118" font-family="Helvetica,sans-Serif" font-size="10.00">ReadRANSFields</text>
</a>
</g>
</g>
<!-- Node2&#45;&gt;Node7 -->
<g id="edge8_Node000002_Node000007" class="edge">
<title>Node2&#45;&gt;Node7</title>
<g id="a_edge8_Node000002_Node000007"><a xlink:title=" ">
<path fill="none" stroke="#63b8ff" d="M268.18,-132.1C280.1,-130.63 292.6,-129.1 304.46,-127.64"/>
<polygon fill="#63b8ff" stroke="#63b8ff" points="305.18,-131.08 314.68,-126.38 304.32,-124.13 305.18,-131.08"/>
</a>
</g>
</g>
<!-- Node8 -->
<g id="Node000008" class="node">
<title>Node8</title>
<g id="a_Node000008"><a xlink:href="io_8c.html#a03f5b76975eea55434d764a23fd42623" target="_top" xlink:title="Reads statistical fields for averaging purposes.">
<polygon fill="white" stroke="#666666" points="423,-93 304,-93 304,-74 423,-74 423,-93"/>
<text text-anchor="middle" x="363.5" y="-81" font-family="Helvetica,sans-Serif" font-size="10.00">ReadStatisticalFields</text>
</a>
</g>
</g>
<!-- Node2&#45;&gt;Node8 -->
<g id="edge10_Node000002_Node000008" class="edge">
<title>Node2&#45;&gt;Node8</title>
<g id="a_edge10_Node000002_Node000008"><a xlink:title=" ">
<path fill="none" stroke="#63b8ff" d="M231.93,-129.86C251.27,-122.18 279.25,-111.28 304,-102.5 309.94,-100.39 316.26,-98.24 322.46,-96.19"/>
<polygon fill="#63b8ff" stroke="#63b8ff" points="323.62,-99.49 332.03,-93.05 321.44,-92.84 323.62,-99.49"/>
</a>
</g>
</g>
<!-- Node4&#45;&gt;Node5 -->
<g id="edge4_Node000004_Node000005" class="edge">
<title>Node4&#45;&gt;Node5</title>
<g id="a_edge4_Node000004_Node000005"><a xlink:title=" ">
<path fill="none" stroke="#63b8ff" d="M401.47,-186.91C420.63,-181.94 444.21,-175.82 464.59,-170.54"/>
<polygon fill="#63b8ff" stroke="#63b8ff" points="465.5,-173.92 474.3,-168.02 463.74,-167.14 465.5,-173.92"/>
</a>
</g>
</g>
<!-- Node5&#45;&gt;Node3 -->
<g id="edge6_Node000005_Node000003" class="edge">
<title>Node5&#45;&gt;Node3</title>
<g id="a_edge6_Node000005_Node000003"><a xlink:title=" ">
<path fill="none" stroke="#63b8ff" d="M535.52,-168.13C556.74,-177.2 588.73,-190.87 612.48,-201.02"/>
<polygon fill="#63b8ff" stroke="#63b8ff" points="611.2,-204.29 621.77,-205 613.95,-197.85 611.2,-204.29"/>
</a>
</g>
</g>
<!-- Node6 -->
<g id="Node000006" class="node">
<title>Node6</title>
<g id="a_Node000006"><a xlink:href="io_8c.html#ab7d7097c8ad047feb1d460e4694b8b4f" target="_top" xlink:title="Checks for a data file&#39;s existence in a parallel&#45;safe manner.">
<polygon fill="white" stroke="#666666" points="688.5,-168 601.5,-168 601.5,-149 688.5,-149 688.5,-168"/>
<text text-anchor="middle" x="645" y="-156" font-family="Helvetica,sans-Serif" font-size="10.00">CheckDataFile</text>
</a>
</g>
</g>
<!-- Node5&#45;&gt;Node6 -->
<g id="edge5_Node000005_Node000006" class="edge">
<title>Node5&#45;&gt;Node6</title>
<g id="a_edge5_Node000005_Node000006"><a xlink:title=" ">
<path fill="none" stroke="#63b8ff" d="M565.15,-158.5C573.67,-158.5 582.51,-158.5 591.05,-158.5"/>
<polygon fill="#63b8ff" stroke="#63b8ff" points="591.28,-162 601.28,-158.5 591.28,-155 591.28,-162"/>
</a>
</g>
</g>
<!-- Node7&#45;&gt;Node5 -->
<g id="edge9_Node000007_Node000005" class="edge">
<title>Node7&#45;&gt;Node5</title>
<g id="a_edge9_Node000007_Node000005"><a xlink:title=" ">
<path fill="none" stroke="#63b8ff" d="M401.47,-130.09C420.63,-135.06 444.21,-141.18 464.59,-146.46"/>
<polygon fill="#63b8ff" stroke="#63b8ff" points="463.74,-149.86 474.3,-148.98 465.5,-143.08 463.74,-149.86"/>
</a>
</g>
</g>
<!-- Node8&#45;&gt;Node5 -->
<g id="edge11_Node000008_Node000005" class="edge">
<title>Node8&#45;&gt;Node5</title>
<g id="a_edge11_Node000008_Node000005"><a xlink:title=" ">
<path fill="none" stroke="#63b8ff" d="M398.78,-93.03C406.88,-95.72 415.37,-98.9 423,-102.5 447.13,-113.87 472.63,-130.7 489.93,-142.94"/>
<polygon fill="#63b8ff" stroke="#63b8ff" points="488.02,-145.88 498.18,-148.87 492.11,-140.19 488.02,-145.88"/>
</a>
</g>
</g>
<!-- Node10 -->
<g id="Node000010" class="node">
<title>Node10</title>
<g id="a_Node000010"><a xlink:href="logging_8c.html#a9585f583c260f40a73f2490914edc689" target="_top" xlink:title="Retrieves the current logging level from the environment variable LOG_LEVEL.">
<polygon fill="white" stroke="#666666" points="404.5,-56 322.5,-56 322.5,-37 404.5,-37 404.5,-56"/>
<text text-anchor="middle" x="363.5" y="-44" font-family="Helvetica,sans-Serif" font-size="10.00">get_log_level</text>
</a>
</g>
</g>
<!-- Node9&#45;&gt;Node10 -->
<g id="edge13_Node000009_Node000010" class="edge">
<title>Node9&#45;&gt;Node10</title>
<g id="a_edge13_Node000009_Node000010"><a xlink:title=" ">
<path fill="none" stroke="#63b8ff" d="M262.91,-46.5C278.99,-46.5 296.48,-46.5 312.25,-46.5"/>
<polygon fill="#63b8ff" stroke="#63b8ff" points="312.34,-50 322.34,-46.5 312.34,-43 312.34,-50"/>
</a>
</g>
</g>
<!-- Node11 -->
<g id="Node000011" class="node">
<title>Node11</title>
<g id="a_Node000011"><a xlink:href="logging_8c.html#a2358badbcda33fc9d80ebd6a59d2a2cd" target="_top" xlink:title="Checks if a given function is in the allow&#45;list.">
<polygon fill="white" stroke="#666666" points="420,-19 307,-19 307,0 420,0 420,-19"/>
<text text-anchor="middle" x="363.5" y="-7" font-family="Helvetica,sans-Serif" font-size="10.00">is_function_allowed</text>
</a>
</g>
</g>
<!-- Node9&#45;&gt;Node11 -->
<g id="edge14_Node000009_Node000011" class="edge">
<title>Node9&#45;&gt;Node11</title>
<g id="a_edge14_Node000009_Node000011"><a xlink:title=" ">
<path fill="none" stroke="#63b8ff" d="M247.79,-36.97C267.62,-32.22 291.81,-26.43 312.85,-21.39"/>
<polygon fill="#63b8ff" stroke="#63b8ff" points="313.67,-24.79 322.58,-19.06 312.04,-17.99 313.67,-24.79"/>
</a>
</g>
</g>
</g>
</svg>
